<?xml version="1.0" encoding="UTF-8"?>
<svg width="116px" height="51px" viewBox="0 0 116 51" version="1.1" xmlns="http://www.w3.org/2000/svg" xmlns:xlink="http://www.w3.org/1999/xlink">
    <!-- Generator: Sketch 42 (36781) - http://www.bohemiancoding.com/sketch -->
    <title>Combined Shape</title>
    <desc>Created with Sketch.</desc>
    <defs></defs>
    <g id="Page-1" stroke="none" stroke-width="1" fill="none" fill-rule="evenodd">
        <g id="HUSH_LOGO_BLACK" fill="#191E22">
            <path d="M4.17892746,3.99902351 C4.17892746,2.13008115 4.10890695,1.46877638 3.56084523,1.46877638 L0.548061729,1.46877638 C0.0618946684,1.46877638 0,1.33253896 0,1.13285085 C0,0.937139218 0.0618946684,0.799 0.548061729,0.799 L8.69983161,0.799 C9.17821861,0.799 9.24823911,0.937139218 9.24823911,1.13285085 L9.24823911,24.8938337 L9.31411026,24.8938337 C10.4143831,23.1609559 12.392592,21.0940543 16.9178184,21.0940543 C21.4430448,21.0940543 27.3363508,23.7645153 27.3363508,31.4290808 L27.3363508,46.6942424 C27.3363508,48.561283 27.4106936,49.29451 27.9547789,49.29451 L30.9713659,49.29451 C31.4490614,49.29451 31.5156241,49.4309204 31.5156241,49.6288796 C31.5156241,49.8309881 31.4490614,49.966534 30.9713659,49.966534 L18.6365192,49.966534 C18.1541558,49.966534 18.0841353,49.8309881 18.0841353,49.6288796 C18.0841353,49.4309204 18.1541558,49.29451 18.6365192,49.29451 L21.6449805,49.29451 C22.1973645,49.29451 22.2630627,48.561283 22.2630627,46.6942424 L22.2630627,27.8312371 C22.2630627,22.295295 18.1541558,21.7615831 16.0974547,21.7615831 C11.1687027,21.7615831 9.24823911,25.8984983 9.24823911,27.3616675 L9.24823911,46.6942424 C9.24823911,48.561283 9.31411026,49.29451 9.85802262,49.29451 L12.8749555,49.29451 C13.357319,49.29451 13.4271666,49.4309204 13.4271666,49.6288796 C13.4271666,49.8309881 13.357319,49.966534 12.8749555,49.966534 L4.19552491,49.966534 L4.17892746,3.99902351 Z M88.1373163,3.99902351 C88.1373163,2.13008115 88.0672958,1.46877638 87.5152576,1.46877638 L84.5062776,1.46877638 C84.0244328,1.46877638 83.9542394,1.33253896 83.9542394,1.13285085 C83.9542394,0.937139218 84.0244328,0.799 84.5062776,0.799 L92.6583933,0.799 C93.1367803,0.799 93.206455,0.937139218 93.206455,1.13285085 L93.206455,24.8938337 L93.2766484,24.8938337 C94.3687954,23.1609559 96.3592795,21.0940543 100.880357,21.0940543 C105.397111,21.0940543 111.290763,23.7645153 111.290763,31.4290808 L111.290763,46.6942424 C111.290763,48.561283 111.360784,49.29451 111.912995,49.29451 L114.925605,49.29451 C115.407796,49.29451 115.469691,49.4309204 115.469691,49.6288796 C115.469691,49.8309881 115.407796,49.966534 114.925605,49.966534 L102.594562,49.966534 C102.112545,49.966534 102.042524,49.8309881 102.042524,49.6288796 C102.042524,49.4309204 102.112545,49.29451 102.594562,49.29451 L105.607519,49.29451 C106.155753,49.29451 106.225601,48.561283 106.225601,46.6942424 L106.225601,27.8312371 C106.225601,22.295295 102.112545,21.7615831 100.056189,21.7615831 C95.1187928,21.7615831 93.206455,25.8984983 93.206455,27.3616675 L93.206455,46.6942424 C93.206455,48.561283 93.2766484,49.29451 93.8165843,49.29451 L96.8374936,49.29451 C97.3113855,49.29451 97.3853825,49.4309204 97.3853825,49.6288796 C97.3853825,49.8309881 97.3113855,49.966534 96.8374936,49.966534 L88.1540866,49.966534 L88.1373163,3.99902351 Z M72.303519,50.5891114 C65.9031262,50.5891114 63.0101556,46.3937594 62.7423487,43.7680769 C62.5402402,41.8066383 63.7273038,39.9107251 65.6930647,39.9107251 C67.6588255,39.9107251 68.8332682,41.4478913 68.9527353,42.6062552 C69.2909084,45.8826961 66.5711737,44.9345666 66.7769129,46.9046497 C66.9335514,48.4291949 68.0460994,50.0284287 72.2623712,50.0284287 C76.1529179,50.0284287 78.716187,47.6750481 78.716187,44.9881626 C78.716187,36.5474933 64.1723231,38.1512222 64.1723231,28.5610064 C64.1723231,25.3450769 66.4553373,20.6447128 72.2912438,20.6490351 C72.9134754,20.6490351 73.5727055,20.7479283 74.261154,20.8715447 C78.3493141,21.6111687 80.6325013,23.8634085 80.6777985,26.7103903 C80.7146241,28.6595537 79.4004862,29.7228281 78.1064035,29.7145293 C76.3629794,29.6984506 75.4725952,28.6019813 75.452367,27.279026 C75.4271251,25.8212164 76.4414715,24.9804517 76.4205518,23.8656561 C76.4082766,22.7508605 75.8026425,21.7079872 74.0303457,21.3105128 C72.7281372,21.0178098 71.8545233,21.1352022 71.071331,21.2920135 C70.1894184,21.4752771 67.5229339,22.0439127 67.5229339,25.6832501 C67.5189574,34.1285874 82.2147918,32.5210549 82.2147918,42.1735112 C82.2147918,46.4675834 77.8714458,50.5891114 72.303519,50.5891114 Z M59.9850969,49.9957524 L52.1834295,49.9957524 C51.713687,49.9957524 51.6479888,49.8636644 51.6479888,49.6658781 L51.6479888,46.9290272 L51.5115785,46.9290272 C50.4441548,48.6641526 48.5854129,50.799 44.2417212,50.799 C39.9844745,50.799 34.3795492,48.1983866 34.3795492,40.4670855 L34.3795492,25.1967372 C34.3795492,23.3257202 34.3138509,22.5981985 33.781868,22.5981985 L30.843773,22.5981985 C30.3818106,22.5981985 30.3076407,22.4623068 30.3076407,22.2624458 C30.3076407,22.062412 30.3818106,21.9327444 30.843773,21.9327444 L38.7853085,21.9327444 C39.2469251,21.9327444 39.3169457,22.062412 39.3169457,22.2624458 L39.3169457,44.065275 C39.3169457,49.53379 43.1825962,50.1314712 45.1111856,50.1314712 C49.7107548,50.1314712 51.5115785,45.9980138 51.5115785,44.5305224 L51.5115785,25.1967372 C51.5115785,23.3257202 51.4500296,22.5981985 50.9138973,22.5981985 L47.9797788,22.5981985 C47.5098634,22.5981985 47.4439922,22.4623068 47.4439922,22.2624458 C47.4439922,22.062412 47.5098634,21.9327444 47.9797788,21.9327444 L55.9173378,21.9327444 C56.3832767,21.9327444 56.4489749,22.062412 56.4489749,22.2624458 L56.4489749,46.8014343 C56.4489749,48.6641526 56.5106967,49.3275321 57.0466561,49.3275321 L59.9850969,49.3275321 C60.4510358,49.3275321 60.5165611,49.4637695 60.5165611,49.6658781 C60.5165611,49.8636644 60.4510358,49.9957524 59.9850969,49.9957524 Z" id="Combined-Shape"></path>
        </g>
    </g>
</svg>