<?xml version="1.0" encoding="UTF-8"?>
<svg width="400px" height="72px" viewBox="0 0 400 72" version="1.1" xmlns="http://www.w3.org/2000/svg" xmlns:xlink="http://www.w3.org/1999/xlink">
    <title>Just for you…</title>
    <defs></defs>
    <g id="Page-1" stroke="none" stroke-width="1" fill="none" fill-rule="evenodd">
        <path d="M345.691683,31.4472601 C345.473106,31.5215716 345.242546,31.5991515 345,31.68 C344.359997,31.8933344 343.600004,32.1366653 342.72,32.41 C341.839996,32.6833347 340.800006,32.9733318 339.6,33.28 C339.453333,33.3200002 339.290001,33.3633331 339.11,33.41 C338.929999,33.4566669 338.760001,33.4999998 338.6,33.54 C338.093331,33.673334 337.53667,33.8166659 336.93,33.97 C336.32333,34.1233341 335.700003,34.2599994 335.06,34.38 C334.206662,34.5400008 333.266672,34.6799994 332.24,34.8 C331.213328,34.9200006 330.126672,34.9666668 328.98,34.94 C328.259996,34.9266666 327.636669,34.9066668 327.11,34.88 C326.583331,34.8533332 326.120002,34.8266668 325.72,34.8 C325.68,34.8 325.633334,34.7966667 325.58,34.79 C325.526666,34.7833333 325.486667,34.78 325.46,34.78 C325.353333,34.7666666 325.29,34.76 325.27,34.76 L325.14,34.76 C325.126667,34.7733334 325.116667,34.7866666 325.11,34.8 C325.103333,34.8133334 325.093333,34.8266666 325.08,34.84 C325.04,34.8800002 325.013333,34.9133332 325,34.94 C324.96,34.9800002 324.933333,35.0133332 324.92,35.04 C324.893333,35.0666668 324.87,35.0933332 324.85,35.12 C324.83,35.1466668 324.806667,35.1733332 324.78,35.2 C324.753333,35.2266668 324.723333,35.2599998 324.69,35.3 C324.656667,35.3400002 324.626667,35.3733332 324.6,35.4 C324.359999,35.666668 324.080002,35.9799982 323.76,36.34 C323.439998,36.7000018 323.113335,37.0399984 322.78,37.36 L322.78,37.34 C322.539999,37.5666678 322.250002,37.8199986 321.91,38.1 C321.569998,38.3800014 321.206669,38.6333322 320.82,38.86 L320.84,38.86 C320.413331,39.1400014 319.90667,39.3733324 319.32,39.56 L319.34,39.56 C319.193333,39.6133336 319.043334,39.6566665 318.89,39.69 C318.736666,39.7233335 318.566668,39.7466666 318.38,39.76 C318.326666,39.7733334 318.26,39.78 318.18,39.78 L317.86,39.78 C317.806666,39.78 317.753334,39.7733334 317.7,39.76 C317.433332,39.7333332 317.186668,39.6600006 316.96,39.54 C316.519998,39.3266656 316.170001,39.0300019 315.91,38.65 C315.649999,38.2699981 315.466667,37.8933352 315.36,37.52 L315.36,37.54 C315.253333,37.1933316 315.186667,36.8766681 315.16,36.59 C315.133333,36.3033319 315.113333,36.0200014 315.1,35.74 C315.1,35.4333318 315.11,35.146668 315.13,34.88 C315.137404,34.7812848 315.145264,34.6853107 315.153581,34.5920775 C314.394267,35.1343315 313.543077,35.7769692 312.6,36.52 L312.62,36.52 C311.979997,37.0400026 311.266671,37.6433299 310.48,38.33 C309.693329,39.0166701 308.863338,39.7833291 307.99,40.63 C307.116662,41.4766709 306.210005,42.399995 305.27,43.4 C304.329995,44.400005 303.386671,45.466661 302.44,46.6 C301.373328,47.93334 300.293339,49.4266584 299.2,51.08 C298.106661,52.7333416 297.033339,54.5533234 295.98,56.54 C294.926661,58.5266766 293.913338,60.6799884 292.94,63 C291.966662,65.3200116 291.066671,67.81332 290.24,70.48 L290.24,70.46 C290.213333,70.5800006 290.183334,70.6766663 290.15,70.75 C290.116667,70.8233337 290.08,70.893333 290.04,70.96 C290.026667,70.9866668 290,71.0299997 289.96,71.09 C289.92,71.1500003 289.886667,71.2066664 289.86,71.26 L289.58,71.54 L289.54,71.5 C289.486666,71.5400002 289.436667,71.5766665 289.39,71.61 C289.343333,71.6433335 289.306667,71.6733332 289.28,71.7 C289.133333,71.7533336 288.976668,71.7866666 288.81,71.8 C288.643333,71.8133334 288.493334,71.8000002 288.36,71.76 C288.213333,71.7066664 288.080001,71.6400004 287.96,71.56 C287.839999,71.4799996 287.753334,71.4000004 287.7,71.32 L287.68,71.28 C287.546666,71.146666 287.466667,70.9933342 287.44,70.82 C287.4,70.6999994 287.38,70.6266668 287.38,70.6 C287.366667,70.5599998 287.36,70.506667 287.36,70.44 L287.36,69.72 C287.36,69.6933332 287.363333,69.6666668 287.37,69.64 C287.376667,69.6133332 287.38,69.5866668 287.38,69.56 C287.406667,69.3333322 287.433333,69.1100011 287.46,68.89 C287.486667,68.6699989 287.513333,68.460001 287.54,68.26 C287.606667,67.9133316 287.683333,67.5700017 287.77,67.23 C287.856667,66.8899983 287.933333,66.5666682 288,66.26 L287.98,66.28 C287.993333,66.2266664 288.003333,66.1800002 288.01,66.14 C288.016667,66.0999998 288.026667,66.0533336 288.04,66 C288.213334,65.3199966 288.383333,64.6833363 288.55,64.09 C288.716668,63.4966637 288.879999,62.9400026 289.04,62.42 C289.360002,61.3933282 289.663332,60.4333378 289.95,59.54 C290.236668,58.6466622 290.546665,57.7200048 290.88,56.76 L291.18,55.92 C291.233334,55.7733326 291.283333,55.6300007 291.33,55.49 C291.376667,55.3499993 291.426666,55.2066674 291.48,55.06 C291.586667,54.7666652 291.693333,54.4633349 291.8,54.15 C291.906667,53.8366651 292.019999,53.5066684 292.14,53.16 C292.446668,52.2799956 292.799998,51.2833389 293.2,50.17 C293.600002,49.0566611 294.043331,47.8166735 294.53,46.45 C295.016669,45.0833265 295.556664,43.5800082 296.15,41.94 C296.743336,40.2999918 297.39333,38.513343 298.1,36.58 C298.353335,35.8866632 298.609999,35.1866702 298.87,34.48 C299.130001,33.7733298 299.379999,33.1000032 299.62,32.46 C299.166664,32.793335 298.720002,33.1133318 298.28,33.42 C297.839998,33.7266682 297.413335,34.0199986 297,34.3 C296.119996,34.8866696 295.280004,35.4299975 294.48,35.93 C293.679996,36.4300025 292.90667,36.8866646 292.16,37.3 C291.786665,37.500001 291.406669,37.6866658 291.02,37.86 C290.633331,38.0333342 290.260002,38.1933326 289.9,38.34 C289.699999,38.4200004 289.493334,38.4866664 289.28,38.54 C289.066666,38.5933336 288.846668,38.6399998 288.62,38.68 L288.48,38.68 C288.373333,38.6933334 288.263334,38.7033333 288.15,38.71 C288.036666,38.7166667 287.906667,38.7066668 287.76,38.68 C287.573332,38.6666666 287.383334,38.6133338 287.19,38.52 C286.996666,38.4266662 286.813334,38.2933342 286.64,38.12 L286.62,38.1 C286.526666,38.033333 286.433334,37.9200008 286.34,37.76 L286.26,37.62 L286.22,37.54 C286.18,37.4999998 286.153333,37.4533336 286.14,37.4 C286.113333,37.3199996 286.1,37.2600002 286.1,37.22 C286.073333,37.1266662 286.046667,37.046667 286.02,36.98 C285.993333,36.913333 285.973333,36.8600002 285.96,36.82 C285.933333,36.7666664 285.92,36.7266668 285.92,36.7 C285.893333,36.499999 285.88,36.2800012 285.88,36.04 C285.88,35.7999988 285.893333,35.5866676 285.92,35.4 C285.946667,35.0933318 286,34.7966681 286.08,34.51 C286.16,34.2233319 286.233333,33.9533346 286.3,33.7 C286.406667,33.3399982 286.536666,32.9900017 286.69,32.65 C286.843334,32.3099983 286.979999,32.006668 287.1,31.74 C287.113333,31.7133332 287.123333,31.6866668 287.13,31.66 C287.136667,31.6333332 287.146667,31.6066668 287.16,31.58 L287.143265,31.6804081 L287.143265,31.6804081 C287.144898,31.6763265 287.147143,31.6728571 287.15,31.67 C287.156667,31.6633333 287.16,31.6533334 287.16,31.64 L287.16,31.52 C287.16,31.4799998 287.186666,31.426667 287.24,31.36 C287.520001,30.7999972 287.749999,30.3633349 287.93,30.05 C288.110001,29.7366651 288.233333,29.5200006 288.3,29.4 C288.486668,29.0933318 288.693332,28.8266678 288.92,28.6 C289.146668,28.3733322 289.373332,28.1966673 289.6,28.07 C289.826668,27.9433327 290.046666,27.8700001 290.26,27.85 C290.473334,27.8299999 290.653333,27.8666662 290.8,27.96 C290.946667,28.0666672 291.05,28.1966659 291.11,28.35 C291.17,28.5033341 291.2,28.6733324 291.2,28.86 C291.2,29.1133346 291.143334,29.406665 291.03,29.74 C290.916666,30.073335 290.766668,30.4133316 290.58,30.76 L290.56,30.78 L290.56,30.76 C290.546667,30.7866668 290.536667,30.8033333 290.53,30.81 C290.523333,30.8166667 290.513333,30.8333332 290.5,30.86 C290.46,30.926667 290.42,30.9966663 290.38,31.07 C290.34,31.1433337 290.306667,31.2066664 290.28,31.26 C290.173333,31.4066674 290.026668,31.6533316 289.84,32 C289.733333,32.1733342 289.620001,32.3699989 289.5,32.59 C289.379999,32.8100011 289.266667,33.053332 289.16,33.32 C289.039999,33.586668 288.910001,33.9033315 288.77,34.27 C288.629999,34.6366685 288.506667,35.0599976 288.4,35.54 C288.373333,35.6333338 288.356667,35.7299995 288.35,35.83 C288.343333,35.9300005 288.34,36.0066664 288.34,36.06 L288.34,36.3 C288.446667,36.2866666 288.559999,36.2700001 288.68,36.25 C288.800001,36.2299999 288.933333,36.186667 289.08,36.12 C289.800004,35.8666654 290.563329,35.5233355 291.37,35.09 C292.176671,34.6566645 293.019996,34.173336 293.9,33.64 C294.300002,33.3999988 294.753331,33.1166683 295.26,32.79 C295.766669,32.4633317 296.293331,32.1133352 296.84,31.74 C297.386669,31.3666648 297.946664,30.980002 298.52,30.58 C299.093336,30.179998 299.646664,29.7866686 300.18,29.4 L300.42,29.22 C300.486667,29.1666664 300.553333,29.1233335 300.62,29.09 C300.686667,29.0566665 300.753333,29.0133336 300.82,28.96 C300.833333,28.96 300.853333,28.9466668 300.88,28.92 C300.906667,28.9066666 300.926667,28.8900001 300.94,28.87 C300.953333,28.8499999 300.973333,28.8266668 301,28.8 L301.14,28.54 L301.3,28.58 L301.34,28.54 L301.46,28.46 C301.486667,28.4333332 301.52,28.4033335 301.56,28.37 C301.6,28.3366665 301.633333,28.3066668 301.66,28.28 L301.96,27.98 C302.026667,28.046667 302.133333,28.1366661 302.28,28.25 C302.426667,28.3633339 302.52,28.4333332 302.56,28.46 C302.680001,28.5666672 302.76,28.6333332 302.8,28.66 L302.76,28.66 C302.813334,28.6866668 302.873333,28.7266664 302.94,28.78 C303.006667,28.8333336 303.099999,28.893333 303.22,28.96 C303.153333,29.1466676 303.08,29.3333324 303,29.52 C302.92,29.7066676 302.866667,29.8266664 302.84,29.88 C302.84,29.8933334 302.836667,29.9066666 302.83,29.92 C302.823333,29.9333334 302.82,29.9466666 302.82,29.96 C302.806667,29.9866668 302.793333,30.0233331 302.78,30.07 C302.766667,30.1166669 302.753333,30.1533332 302.74,30.18 C302.726667,30.2200002 302.706667,30.2666664 302.68,30.32 C302.653333,30.3733336 302.633333,30.4266664 302.62,30.48 C302.593333,30.546667 302.57,30.6099997 302.55,30.67 C302.53,30.7300003 302.506667,30.793333 302.48,30.86 C302.386666,31.1000012 302.293334,31.3433321 302.2,31.59 C302.106666,31.8366679 302.006667,32.0866654 301.9,32.34 C301.606665,33.0866704 301.296668,33.8833291 300.97,34.73 C300.643332,35.5766709 300.320002,36.4266624 300,37.28 C298.946661,40.0533472 298.030004,42.506656 297.25,44.64 C296.469996,46.773344 295.793336,48.673325 295.22,50.34 C294.646664,52.006675 294.153335,53.4766603 293.74,54.75 C293.326665,56.0233397 292.960002,57.1799948 292.64,58.22 L292.84,57.82 C292.906667,57.686666 292.973333,57.5600006 293.04,57.44 C293.533336,56.506662 294.006664,55.640004 294.46,54.84 C294.913336,54.039996 295.353331,53.3000034 295.78,52.62 C296.206669,51.95333 296.619998,51.3133364 297.02,50.7 C297.420002,50.0866636 297.833331,49.4766697 298.26,48.87 C298.686669,48.2633303 299.129998,47.6500031 299.59,47.03 C300.050002,46.4099969 300.553331,45.7533368 301.1,45.06 C302.860009,42.8999892 304.499992,41.0766741 306.02,39.59 C307.540008,38.1033259 308.899994,36.8333386 310.1,35.78 C311.300006,34.7399948 312.339996,33.8833367 313.22,33.21 C314.100004,32.5366633 314.85333,31.966669 315.48,31.5 C315.785726,31.2788368 316.067649,31.0767155 316.325771,30.8936347 C316.420511,30.7417505 316.518587,30.5972059 316.62,30.46 C316.873335,30.1399984 317.123332,29.8633345 317.37,29.63 C317.616668,29.3966655 317.859999,29.2000008 318.1,29.04 L318.08,29.06 C318.560002,28.726665 318.993331,28.4800008 319.38,28.32 C319.766669,28.1599992 320.093332,28.0333338 320.36,27.94 C320.666668,27.8466662 320.889999,27.7833335 321.03,27.75 C321.170001,27.7166665 321.273333,27.6933334 321.34,27.68 C321.553334,27.6399998 321.759999,27.6466664 321.96,27.7 C322.160001,27.7533336 322.336666,27.8399994 322.49,27.96 C322.516284,27.9805698 322.541686,28.0018252 322.566206,28.0237662 C322.710264,28.1030507 322.821528,28.2151285 322.9,28.36 C322.958253,28.4765067 322.98646,28.6053839 322.984622,28.7466337 C322.994874,28.8092582 323,28.8737135 323,28.94 C323,29.2866684 322.886668,29.5899987 322.66,29.85 C322.486769,30.0487064 322.278495,30.19095 322.035175,30.2767329 C321.846848,30.434946 321.641791,30.5827007 321.42,30.72 C321.366666,30.7466668 321.313334,30.7799998 321.26,30.82 C321.206666,30.8600002 321.153334,30.8933332 321.1,30.92 C321.073333,30.9333334 321.043334,30.9466666 321.01,30.96 C320.976667,30.9733334 320.946667,30.9866666 320.92,31 C320.813333,31.0400002 320.696667,31.093333 320.57,31.16 C320.443333,31.226667 320.283334,31.3133328 320.09,31.42 C319.896666,31.5266672 319.663335,31.6599992 319.39,31.82 C319.116665,31.9800008 318.786669,32.1799988 318.4,32.42 L318.42,32.42 C318.245791,32.5288806 318.059728,32.6468987 317.861811,32.7740548 C317.697311,33.0863998 317.570042,33.4483782 317.48,33.86 C317.386666,34.2866688 317.313334,34.7533308 317.26,35.26 C317.22,35.5400014 317.2,35.779999 317.2,35.98 C317.2,36.2333346 317.226666,36.493332 317.28,36.76 C317.306667,36.960001 317.36,37.1533324 317.44,37.34 C317.52,37.5266676 317.639999,37.6599996 317.8,37.74 C317.893334,37.7800002 317.999999,37.8 318.12,37.8 C318.240001,37.8 318.366666,37.7833335 318.5,37.75 C318.633334,37.7166665 318.773333,37.6733336 318.92,37.62 C319.160001,37.5399996 319.383332,37.4433339 319.59,37.33 C319.796668,37.2166661 319.986666,37.1066672 320.16,37 C320.480002,36.7866656 320.783332,36.5400014 321.07,36.26 C321.356668,35.9799986 321.626665,35.706668 321.88,35.44 C322.186668,35.106665 322.433332,34.840001 322.62,34.64 C322.806668,34.439999 322.94,34.2533342 323.02,34.08 C323.126667,33.8666656 323.253333,33.626668 323.4,33.36 C323.546667,33.093332 323.743332,32.860001 323.99,32.66 C324.236668,32.459999 324.543332,32.326667 324.91,32.26 C325.276668,32.193333 325.733331,32.259999 326.28,32.46 L326.76,32.46 C326.84,32.46 326.923333,32.4633333 327.01,32.47 C327.096667,32.4766667 327.186666,32.48 327.28,32.48 L327.96,32.48 C328.200001,32.48 328.453332,32.4866666 328.72,32.5 C329.026668,32.5133334 329.403331,32.5233333 329.85,32.53 C330.296669,32.5366667 330.719998,32.54 331.12,32.54 C332.160005,32.5266666 333.06333,32.4766671 333.83,32.39 C334.59667,32.3033329 335.279997,32.2066672 335.88,32.1 C336.480003,31.9933328 337.056664,31.8800006 337.61,31.76 C338.163336,31.6399994 338.706664,31.5066674 339.24,31.36 C339.640002,31.2399994 340.049998,31.113334 340.47,30.98 C340.890002,30.846666 341.299998,30.7100007 341.7,30.57 C342.100002,30.4299993 342.476665,30.2966673 342.83,30.17 C343.183335,30.0433327 343.493332,29.9266672 343.76,29.82 C344.226669,29.6333324 344.619998,29.4700007 344.94,29.33 C345.260002,29.1899993 345.553332,29.053334 345.82,28.92 L346.1,28.78 C346.326668,28.6733328 346.523332,28.5766671 346.69,28.49 C346.856667,28.4033329 346.999999,28.326667 347.12,28.26 L347.14,28.26 C347.273334,28.193333 347.393333,28.1300003 347.5,28.07 C347.606667,28.0099997 347.733333,27.946667 347.88,27.88 L347.9,27.86 C348.273335,27.7133326 348.636665,27.6999994 348.99,27.82 C349.343335,27.9400006 349.599999,28.166665 349.76,28.5 C349.906667,28.833335 349.910001,29.1766649 349.77,29.53 C349.702737,29.6997586 349.607006,29.8487416 349.482806,29.9769499 C349.469369,30.0046332 349.4551,30.0323166 349.44,30.06 C349.413333,30.0866668 349.386667,30.1166665 349.36,30.15 C349.333333,30.1833335 349.306667,30.2266664 349.28,30.28 L349.3,30.26 C349.273333,30.2866668 349.253333,30.3166665 349.24,30.35 C349.226667,30.3833335 349.2,30.4199998 349.16,30.46 C349.053333,30.6066674 348.910001,30.8166653 348.73,31.09 C348.549999,31.3633347 348.320001,31.7399976 348.04,32.22 C347.906666,32.4466678 347.770001,32.7033319 347.63,32.99 C347.489999,33.2766681 347.373334,33.5333322 347.28,33.76 C347.159999,34.0533348 347.043334,34.3833315 346.93,34.75 C346.816666,35.1166685 346.746667,35.4933314 346.72,35.88 C346.706667,36.0400008 346.71,36.1966659 346.73,36.35 C346.75,36.5033341 346.793333,36.6333328 346.86,36.74 C346.953334,36.9133342 347.086666,37.0566661 347.26,37.17 C347.433334,37.2833339 347.619999,37.3666664 347.82,37.42 L347.8,37.4 C348.293336,37.5066672 348.726665,37.56 349.1,37.56 C349.913337,37.56 350.799995,37.3866684 351.76,37.04 C352.46667,36.7866654 353.096664,36.493335 353.65,36.16 C354.203336,35.826665 354.693331,35.4866684 355.12,35.14 C355.560002,34.7933316 355.963332,34.453335 356.33,34.12 C356.696669,33.786665 357.013332,33.4800014 357.28,33.2 C357.693335,32.7733312 358.059998,32.3566687 358.38,31.95 C358.700002,31.5433313 358.986665,31.1666684 359.24,30.82 C359.253333,30.7266662 359.293333,30.6066674 359.36,30.46 L359.36,30.36 L359.48,30.5 C359.493333,30.4733332 359.579999,30.4100005 359.74,30.31 C359.900001,30.2099995 360.079999,30.1100005 360.28,30.01 C360.480001,29.9099995 360.659999,29.8233337 360.82,29.75 C360.980001,29.6766663 361.066667,29.6599998 361.08,29.7 L361.48,31.22 L361.42,31.54 L361.46,31.44 C361.446667,31.5200004 361.44,31.5999996 361.44,31.68 C361.44,31.7600004 361.433333,31.833333 361.42,31.9 C361.42,31.9400002 361.416667,31.9766665 361.41,32.01 C361.403333,32.0433335 361.4,32.0733332 361.4,32.1 C361.386667,32.2066672 361.38,32.3033329 361.38,32.39 L361.38,33.06 C361.38,33.193334 361.393333,33.3333326 361.42,33.48 C361.446667,33.7200012 361.486666,33.9666654 361.54,34.22 C361.593334,34.4733346 361.686666,34.7266654 361.82,34.98 C361.926667,35.2066678 362.086666,35.4233323 362.3,35.63 C362.513334,35.8366677 362.793332,35.9999994 363.14,36.12 L363.12,36.12 C363.360001,36.2000004 363.606665,36.2566665 363.86,36.29 C364.113335,36.3233335 364.359999,36.34 364.6,36.34 C364.826668,36.3266666 365.066665,36.3100001 365.32,36.29 C365.573335,36.2699999 365.813332,36.2400002 366.04,36.2 C366.493336,36.1199996 366.906665,36.0300005 367.28,35.93 C367.653335,35.8299995 367.993332,35.7266672 368.3,35.62 L368.28,35.62 C368.960003,35.3799988 369.583331,35.126668 370.15,34.86 C370.71667,34.593332 371.339997,34.3066682 372.02,34 C373.033338,33.4799974 373.963329,32.9700025 374.81,32.47 C375.656671,31.9699975 376.37333,31.5333352 376.96,31.16 C377.560003,30.7733314 378.059998,30.446668 378.46,30.18 C378.860002,29.913332 379.199999,29.6733344 379.48,29.46 C379.640001,29.3399994 379.783333,29.2333338 379.91,29.14 C380.036667,29.0466662 380.153333,28.9600004 380.26,28.88 L380.46,28.72 C380.526667,28.6666664 380.593333,28.6200002 380.66,28.58 L380.64,28.6 C380.693334,28.5733332 380.733333,28.5466668 380.76,28.52 L381.12,28.24 C381.240001,28.1466662 381.373333,28.0533338 381.52,27.96 L381.5,27.96 C381.793335,27.759999 382.119998,27.66 382.48,27.66 C382.706668,27.66 382.913332,27.7033329 383.1,27.79 C383.286668,27.8766671 383.439999,28.0133324 383.56,28.2 C383.760001,28.5066682 383.796667,28.8533314 383.67,29.24 C383.543333,29.6266686 383.306668,29.9399988 382.96,30.18 L382.98,30.18 C382.913333,30.2333336 382.856667,30.2699999 382.81,30.29 C382.763333,30.3100001 382.72,30.3333332 382.68,30.36 C382.653333,30.3733334 382.636667,30.38 382.63,30.38 C382.623333,30.38 382.606667,30.3866666 382.58,30.4 C382.513333,30.4266668 382.44,30.4633331 382.36,30.51 C382.28,30.5566669 382.153334,30.6333328 381.98,30.74 C381.9,30.7800002 381.823334,30.8199998 381.75,30.86 C381.676666,30.9000002 381.586667,30.953333 381.48,31.02 C381.4,31.0600002 381.326667,31.0999998 381.26,31.14 C381.193333,31.1800002 381.113334,31.2266664 381.02,31.28 L381.04,31.28 C380.973333,31.3066668 380.9,31.3466664 380.82,31.4 C380.74,31.4533336 380.666667,31.4999998 380.6,31.54 C380.453333,31.6333338 380.290001,31.7333328 380.11,31.84 C379.929999,31.9466672 379.746668,32.0533328 379.56,32.16 L379.56,32.14 C379.413333,32.2200004 379.266667,32.3033329 379.12,32.39 C378.973333,32.4766671 378.826667,32.5666662 378.68,32.66 L378.24,32.92 C378.173333,32.9600002 378.106667,32.9933332 378.04,33.02 C377.973333,33.0466668 377.926667,33.0733332 377.9,33.1 C377.246663,33.4733352 376.493338,33.893331 375.64,34.36 C374.786662,34.826669 373.813339,35.3199974 372.72,35.84 C372.666666,35.8666668 372.606667,35.8933332 372.54,35.92 C372.473333,35.9466668 372.42,35.9733332 372.38,36 C372.313333,36.0266668 372.256667,36.0533332 372.21,36.08 C372.163333,36.1066668 372.12,36.1333332 372.08,36.16 C371.439997,36.4666682 370.75667,36.786665 370.03,37.12 C369.30333,37.453335 368.466671,37.753332 367.52,38.02 C366.959997,38.1800008 366.380003,38.3233327 365.78,38.45 C365.179997,38.5766673 364.540003,38.6266668 363.86,38.6 C363.499998,38.5733332 363.123335,38.5166671 362.73,38.43 C362.336665,38.3433329 361.960002,38.2133342 361.6,38.04 C361.213331,37.8533324 360.850002,37.5900017 360.51,37.25 C360.169998,36.9099983 359.893334,36.5466686 359.68,36.16 C359.506666,35.826665 359.373334,35.5000016 359.28,35.18 C359.186666,34.8599984 359.113334,34.5466682 359.06,34.24 C358.753332,34.573335 358.400002,34.906665 358,35.24 L358.02,35.24 C357.739999,35.506668 357.423335,35.7833319 357.07,36.07 C356.716665,36.3566681 356.313336,36.666665 355.86,37 C355.406664,37.3200016 354.89667,37.6566649 354.33,38.01 C353.763331,38.3633351 353.14667,38.673332 352.48,38.94 L352.5,38.92 C351.87333,39.1733346 351.260003,39.3566661 350.66,39.47 C350.059997,39.5833339 349.46667,39.64 348.88,39.64 L348.52,39.64 C348.386666,39.64 348.273334,39.6333334 348.18,39.62 C347.859998,39.5933332 347.513335,39.5300005 347.14,39.43 C346.766665,39.3299995 346.426668,39.1866676 346.12,39 C345.786665,38.799999 345.490001,38.5366683 345.23,38.21 C344.969999,37.8833317 344.786667,37.5600016 344.68,37.24 C344.573333,36.906665 344.51,36.5933348 344.49,36.3 C344.47,36.0066652 344.466667,35.7200014 344.48,35.44 C344.506667,35.1466652 344.54,34.8900011 344.58,34.67 C344.62,34.4499989 344.666666,34.2333344 344.72,34.02 C344.826667,33.6733316 344.939999,33.3266684 345.06,32.98 C345.180001,32.6333316 345.313333,32.293335 345.46,31.96 C345.538425,31.7846967 345.615653,31.6137835 345.691683,31.4472601 Z M209.665694,30.4256267 C209.599346,30.4513079 209.504115,30.4827654 209.38,30.52 C209.246666,30.5600002 209.040001,30.6333328 208.76,30.74 C208.493332,30.8466672 208.133336,30.9799992 207.68,31.14 C207.226664,31.3000008 206.700003,31.479999 206.1,31.68 C205.459997,31.8933344 204.700004,32.1366653 203.82,32.41 C202.939996,32.6833347 201.900006,32.9733318 200.7,33.28 C200.553333,33.3200002 200.390001,33.3633331 200.21,33.41 C200.029999,33.4566669 199.860001,33.4999998 199.7,33.54 C199.193331,33.673334 198.63667,33.8166659 198.03,33.97 C197.42333,34.1233341 196.800003,34.2599994 196.16,34.38 C195.306662,34.5400008 194.366672,34.6799994 193.34,34.8 C192.313328,34.9200006 191.226672,34.9666668 190.08,34.94 C189.359996,34.9266666 188.736669,34.9066668 188.21,34.88 C187.683331,34.8533332 187.220002,34.8266668 186.82,34.8 C186.78,34.8 186.733334,34.7966667 186.68,34.79 C186.626666,34.7833333 186.586667,34.78 186.56,34.78 C186.453333,34.7666666 186.39,34.76 186.37,34.76 L186.24,34.76 C186.226667,34.7733334 186.216667,34.7866666 186.21,34.8 C186.203333,34.8133334 186.193333,34.8266666 186.18,34.84 C186.14,34.8800002 186.113333,34.9133332 186.1,34.94 C186.06,34.9800002 186.033333,35.0133332 186.02,35.04 C185.993333,35.0666668 185.97,35.0933332 185.95,35.12 C185.93,35.1466668 185.906667,35.1733332 185.88,35.2 C185.853333,35.2266668 185.823333,35.2599998 185.79,35.3 C185.756667,35.3400002 185.726667,35.3733332 185.7,35.4 C185.459999,35.666668 185.180002,35.9799982 184.86,36.34 C184.539998,36.7000018 184.213335,37.0399984 183.88,37.36 L183.88,37.34 C183.639999,37.5666678 183.350002,37.8199986 183.01,38.1 C182.669998,38.3800014 182.306669,38.6333322 181.92,38.86 L181.94,38.86 C181.513331,39.1400014 181.00667,39.3733324 180.42,39.56 L180.44,39.56 C180.293333,39.6133336 180.143334,39.6566665 179.99,39.69 C179.836666,39.7233335 179.666668,39.7466666 179.48,39.76 C179.426666,39.7733334 179.36,39.78 179.28,39.78 L178.96,39.78 C178.906666,39.78 178.853334,39.7733334 178.8,39.76 C178.533332,39.7333332 178.286668,39.6600006 178.06,39.54 C177.619998,39.3266656 177.270001,39.0300019 177.01,38.65 C176.749999,38.2699981 176.566667,37.8933352 176.46,37.52 L176.46,37.54 C176.353333,37.1933316 176.286667,36.8766681 176.26,36.59 C176.233333,36.3033319 176.213333,36.0200014 176.2,35.74 C176.2,35.4333318 176.21,35.146668 176.23,34.88 C176.25,34.613332 176.273333,34.3666678 176.3,34.14 C176.326667,33.9266656 176.363333,33.7066678 176.41,33.48 C176.449953,33.2859436 176.502121,33.0821171 176.566505,32.868516 C176.352635,32.9369989 176.130467,33.0074935 175.9,33.08 C174.713327,33.4533352 173.246675,33.806665 171.5,34.14 C170.633329,34.3000008 169.660005,34.446666 168.58,34.58 C167.499995,34.713334 166.31334,34.8066664 165.02,34.86 C164.726665,34.8733334 164.423335,34.8833333 164.11,34.89 C163.796665,34.8966667 163.486668,34.9 163.18,34.9 C162.446663,34.9 161.693337,34.8800002 160.92,34.84 C160.559998,34.8133332 160.183335,34.7866668 159.79,34.76 C159.396665,34.7333332 159.006669,34.7000002 158.62,34.66 L158.2,34.6 C158.093333,34.5733332 157.913335,34.5400002 157.66,34.5 C157.406665,34.4599998 157.206667,34.4200002 157.06,34.38 C156.699998,35.71334 156.363335,36.9666608 156.05,38.14 C155.736665,39.3133392 155.446668,40.4399946 155.18,41.52 C154.779998,43.1600082 154.423335,44.6699931 154.11,46.05 C153.796665,47.4300069 153.513335,48.6933276 153.26,49.84 C153.193333,50.1200014 153.133334,50.393332 153.08,50.66 C153.026666,50.926668 152.966667,51.1866654 152.9,51.44 L152.92,51.42 C152.666665,52.5933392 152.450001,53.6299955 152.27,54.53 C152.089999,55.4300045 151.933334,56.1999968 151.8,56.84 C151.773333,57.0000008 151.743333,57.1533326 151.71,57.3 C151.676666,57.4466674 151.646667,57.5799994 151.62,57.7 L151.36,58.98 C151.36,59.0066668 151.356667,59.0333332 151.35,59.06 C151.343333,59.0866668 151.333333,59.133333 151.32,59.2 L151.32,59.18 C151.24,59.513335 151.133334,59.8266652 151,60.12 C150.866666,60.4133348 150.720001,60.6633323 150.56,60.87 C150.399999,61.0766677 150.226668,61.2299995 150.04,61.33 C149.853332,61.4300005 149.673334,61.4600002 149.5,61.42 C149.219999,61.3399996 149.000001,61.1533348 148.84,60.86 C148.679999,60.5666652 148.6,60.2000022 148.6,59.76 C148.6,59.5999992 148.606667,59.4233343 148.62,59.23 C148.633333,59.0366657 148.66,58.840001 148.7,58.64 C148.726667,58.5333328 148.756666,58.4166673 148.79,58.29 C148.823333,58.1633327 148.863333,58.0100009 148.91,57.83 C148.956667,57.6499991 149.01,57.4300013 149.07,57.17 C149.13,56.9099987 149.206666,56.5866686 149.3,56.2 C149.366667,55.9733322 149.426666,55.7200014 149.48,55.44 C149.533334,55.1599986 149.593333,54.8600016 149.66,54.54 L149.66,54.56 C149.793334,53.6399954 149.949999,52.4666738 150.13,51.04 C150.310001,49.6133262 150.519999,47.8200108 150.76,45.66 C151.080002,42.859986 151.329999,40.493343 151.51,38.56 C151.690001,36.626657 151.829999,35.0300063 151.93,33.77 C152.03,32.5099937 152.096666,31.5400034 152.13,30.86 C152.163333,30.1799966 152.186667,29.7000014 152.2,29.42 C152.2,29.3799998 152.203333,29.3366669 152.21,29.29 C152.216667,29.2433331 152.22,29.2000002 152.22,29.16 L152.22,29 C152.286667,28.666665 152.459999,28.400001 152.74,28.2 C153.020001,27.999999 153.346665,27.9199998 153.72,27.96 C154.066668,28.0133336 154.353332,28.1766653 154.58,28.45 C154.806668,28.7233347 154.906667,29.0533314 154.88,29.44 C154.866667,29.4533334 154.86,29.4533334 154.86,29.44 C154.86,29.4666668 154.856667,29.4966665 154.85,29.53 C154.843333,29.5633335 154.84,29.5866666 154.84,29.6 C154.813333,29.733334 154.763334,29.9699983 154.69,30.31 C154.616666,30.6500017 154.516667,31.2066628 154.39,31.98 C154.263333,32.7533372 154.110001,33.7999934 153.93,35.12 C153.749999,36.4400066 153.533335,38.1399896 153.28,40.22 C153.800003,38.2599902 154.40333,36.0900119 155.09,33.71 C155.77667,31.3299881 156.599995,28.6933478 157.56,25.8 C158.133336,24.0933248 158.683331,22.5100073 159.21,21.05 C159.736669,19.5899927 160.246664,18.2433395 160.74,17.01 C161.233336,15.7766605 161.709998,14.6400052 162.17,13.6 C162.630002,12.5599948 163.073331,11.606671 163.5,10.74 C163.940002,9.8466622 164.369998,9.0266704 164.79,8.28 C165.210002,7.5333296 165.623331,6.8433365 166.03,6.21 C166.436669,5.5766635 166.843331,5.0000026 167.25,4.48 C167.656669,3.9599974 168.073331,3.4733356 168.5,3.02 C168.966669,2.553331 169.453331,2.1266686 169.96,1.74 C170.466669,1.3533314 171.03333,1.0466678 171.66,0.82 L171.64,0.84 C171.866668,0.7333328 172.063332,0.6600002 172.23,0.62 C172.396667,0.5799998 172.546666,0.5466668 172.68,0.52 L172.64,0.54 C172.786667,0.4999998 172.903333,0.4733334 172.99,0.46 C173.076667,0.4466666 173.153333,0.4333334 173.22,0.42 L173.44,0.42 C173.600001,0.42 173.786666,0.4666662 174,0.56 C174.226668,0.6666672 174.393333,0.8133324 174.5,1 C174.606667,1.1866676 174.673333,1.346666 174.7,1.48 C174.74,1.6533342 174.76,1.8133326 174.76,1.96 C174.76,2.1066674 174.753333,2.2333328 174.74,2.34 C174.726667,2.406667 174.71,2.4866662 174.69,2.58 C174.67,2.6733338 174.646667,2.7733328 174.62,2.88 C174.593333,3.0000006 174.56,3.1333326 174.52,3.28 C174.48,3.4266674 174.44,3.5599994 174.4,3.68 L174.34,3.9 C174.113332,4.5266698 173.856668,5.1799966 173.57,5.86 C173.283332,6.5400034 172.956668,7.2666628 172.59,8.04 C172.223331,8.8133372 171.816669,9.6399956 171.37,10.52 C170.923331,11.4000044 170.426669,12.3533282 169.88,13.38 C169.039996,14.9666746 168.270003,16.393327 167.57,17.66 C166.869996,18.926673 166.22667,20.0866614 165.64,21.14 C165.533333,21.3266676 165.43,21.5133324 165.33,21.7 C165.229999,21.8866676 165.126667,22.0733324 165.02,22.26 C164.913333,22.4466676 164.793334,22.6599988 164.66,22.9 C164.526666,23.1400012 164.406667,23.3533324 164.3,23.54 L163.86,24.34 C163.713333,24.606668 163.573334,24.8533322 163.44,25.08 C163.226666,25.4533352 163.023334,25.8133316 162.83,26.16 C162.636666,26.5066684 162.446668,26.8533316 162.26,27.2 L161.48,28.58 L161.5,28.58 C161.153332,29.2200032 160.786669,29.8833299 160.4,30.57 C160.013331,31.2566701 159.606669,31.966663 159.18,32.7 C159.753336,32.766667 160.293331,32.8066666 160.8,32.82 L160.9,32.82 C161.166668,32.8333334 161.419999,32.8433333 161.66,32.85 C161.900001,32.8566667 162.139999,32.86 162.38,32.86 C162.700002,32.86 163.003332,32.8566667 163.29,32.85 C163.576668,32.8433333 163.866665,32.8333334 164.16,32.82 C165.160005,32.7799998 166.123329,32.7100005 167.05,32.61 C167.976671,32.5099995 168.839996,32.3866674 169.64,32.24 C171.160008,31.973332 172.443328,31.6866682 173.49,31.38 C174.536672,31.0733318 175.419996,30.786668 176.14,30.52 C176.553335,30.3733326 176.906665,30.2433339 177.2,30.13 C177.493335,30.0166661 177.749999,29.9133338 177.97,29.82 C178.185509,29.7285718 178.375427,29.6435422 178.539758,29.5649086 C178.762573,29.3598668 178.982652,29.1848987 179.2,29.04 L179.18,29.06 C179.660002,28.726665 180.093331,28.4800008 180.48,28.32 C180.866669,28.1599992 181.193332,28.0333338 181.46,27.94 C181.766668,27.8466662 181.989999,27.7833335 182.13,27.75 C182.270001,27.7166665 182.373333,27.6933334 182.44,27.68 C182.653334,27.6399998 182.859999,27.6466664 183.06,27.7 C183.260001,27.7533336 183.436666,27.8399994 183.59,27.96 C183.743334,28.0800006 183.866666,28.2233325 183.96,28.39 C184.053334,28.5566675 184.1,28.739999 184.1,28.94 C184.1,29.2866684 183.986668,29.5899987 183.76,29.85 C183.533332,30.1100013 183.246668,30.273333 182.9,30.34 C182.875226,30.34 182.844699,30.3428769 182.808418,30.3486306 C182.626379,30.4865203 182.43024,30.6103094 182.22,30.72 C182.099999,30.786667 181.963334,30.853333 181.81,30.92 C181.656666,30.986667 181.486668,31.053333 181.3,31.12 L181.26,31.12 C181.193333,31.1466668 181.123334,31.1799998 181.05,31.22 C180.976666,31.2600002 180.906667,31.2933332 180.84,31.32 L180.86,31.32 C180.633332,31.4133338 180.353335,31.5233327 180.02,31.65 C179.883731,31.7017823 179.735207,31.7585779 179.574428,31.820387 C179.539495,31.8590202 179.504686,31.8988912 179.47,31.94 C179.289999,32.1533344 179.126667,32.4199984 178.98,32.74 C178.806666,33.0600016 178.673334,33.4333312 178.58,33.86 C178.486666,34.2866688 178.413334,34.7533308 178.36,35.26 C178.32,35.5400014 178.3,35.779999 178.3,35.98 C178.3,36.2333346 178.326666,36.493332 178.38,36.76 C178.406667,36.960001 178.46,37.1533324 178.54,37.34 C178.62,37.5266676 178.739999,37.6599996 178.9,37.74 C178.993334,37.7800002 179.099999,37.8 179.22,37.8 C179.340001,37.8 179.466666,37.7833335 179.6,37.75 C179.733334,37.7166665 179.873333,37.6733336 180.02,37.62 C180.260001,37.5399996 180.483332,37.4433339 180.69,37.33 C180.896668,37.2166661 181.086666,37.1066672 181.26,37 C181.580002,36.7866656 181.883332,36.5400014 182.17,36.26 C182.456668,35.9799986 182.726665,35.706668 182.98,35.44 C183.286668,35.106665 183.533332,34.840001 183.72,34.64 C183.906668,34.439999 184.04,34.2533342 184.12,34.08 C184.226667,33.8666656 184.353333,33.626668 184.5,33.36 C184.646667,33.093332 184.843332,32.860001 185.09,32.66 C185.336668,32.459999 185.643332,32.326667 186.01,32.26 C186.376669,32.193333 186.833331,32.259999 187.38,32.46 L187.86,32.46 C187.94,32.46 188.023333,32.4633333 188.11,32.47 C188.196667,32.4766667 188.286666,32.48 188.38,32.48 L189.06,32.48 C189.300001,32.48 189.553332,32.4866666 189.82,32.5 C190.126668,32.5133334 190.503331,32.5233333 190.95,32.53 C191.396669,32.5366667 191.819998,32.54 192.22,32.54 C193.260005,32.5266666 194.16333,32.4766671 194.93,32.39 C195.69667,32.3033329 196.379997,32.2066672 196.98,32.1 C197.580003,31.9933328 198.156664,31.8800006 198.71,31.76 C199.263336,31.6399994 199.806664,31.5066674 200.34,31.36 C200.740002,31.2399994 201.149998,31.113334 201.57,30.98 C201.990002,30.846666 202.399998,30.7100007 202.8,30.57 C203.200002,30.4299993 203.576665,30.2966673 203.93,30.17 C204.283335,30.0433327 204.593332,29.9266672 204.86,29.82 C205.326669,29.6333324 205.719998,29.4700007 206.04,29.33 C206.360002,29.1899993 206.653332,29.053334 206.92,28.92 L207.2,28.78 C207.426668,28.6733328 207.623333,28.5766671 207.79,28.49 C207.927109,28.4187035 208.048425,28.3541753 208.153951,28.2964142 C208.316165,28.0115752 208.568179,27.8194388 208.91,27.72 C209.276668,27.6133328 209.653331,27.626666 210.04,27.76 L210,27.76 C211.33334,28.1466686 212.239998,28.3899995 212.72,28.49 C213.200002,28.5900005 213.186669,28.6466666 212.68,28.66 C213.133336,28.7666672 213.726663,28.8833327 214.46,29.01 C215.193337,29.1366673 216.046662,29.2399996 217.02,29.32 C217.393335,29.3466668 217.793331,29.3699999 218.22,29.39 C218.646669,29.4100001 219.079998,29.42 219.52,29.42 C220.280004,29.42 221.163328,29.3833337 222.17,29.31 C223.176672,29.2366663 224.226661,29.1133342 225.32,28.94 C226.146671,28.7933326 226.909996,28.653334 227.61,28.52 C228.310004,28.386666 228.913331,28.253334 229.42,28.12 C229.433333,28.12 229.473333,28.1133334 229.54,28.1 C229.606667,28.0866666 229.66,28.0666668 229.7,28.04 C229.713333,28.04 229.736667,28.0366667 229.77,28.03 C229.803334,28.0233333 229.826667,28.02 229.84,28.02 C229.813333,28.02 229.813333,28.0133334 229.84,28 L229.88,27.96 C229.92,27.96 229.993333,27.9533334 230.1,27.94 C230.206667,27.9266666 230.319999,27.9066668 230.44,27.88 C230.560001,27.8533332 230.673333,27.8300001 230.78,27.81 C230.886667,27.7899999 230.96,27.7733334 231,27.76 L231.28,29.04 C231.28,29.0533334 231.256667,29.0999996 231.21,29.18 C231.163333,29.2600004 231.11,29.3466662 231.05,29.44 C230.99,29.5333338 230.936667,29.6199996 230.89,29.7 C230.843333,29.7800004 230.82,29.8266666 230.82,29.84 L230.76,29.96 C230.733333,30.026667 230.7,30.0899997 230.66,30.15 C230.62,30.2100003 230.586667,30.2666664 230.56,30.32 L230.58,30.3 C230.553333,30.366667 230.53,30.4099999 230.51,30.43 C230.49,30.4500001 230.46,30.5066662 230.42,30.6 C230.353333,30.7066672 230.286667,30.826666 230.22,30.96 C230.153333,31.093334 230.093334,31.1999996 230.04,31.28 L230.06,31.26 C229.673331,32.0466706 229.346668,32.7433303 229.08,33.35 C228.813332,33.9566697 228.586668,34.5199974 228.4,35.04 L228.4,35.02 L228.2,35.7 C228.133333,35.9266678 228.073334,36.173332 228.02,36.44 C227.993333,36.5466672 227.973333,36.6599994 227.96,36.78 C227.946667,36.9000006 227.94,36.9866664 227.94,37.04 C227.94,37.2000008 227.966666,37.3266662 228.02,37.42 C228.046667,37.4733336 228.133333,37.5066666 228.28,37.52 C228.426667,37.5333334 228.606666,37.5266668 228.82,37.5 C229.193335,37.4866666 229.596665,37.4433337 230.03,37.37 C230.463336,37.2966663 230.899998,37.2000006 231.34,37.08 C231.873336,36.9333326 232.446664,36.760001 233.06,36.56 C233.673336,36.359999 234.226664,36.1666676 234.72,35.98 C234.866667,35.9266664 235.006666,35.8766669 235.14,35.83 C235.273334,35.7833331 235.413333,35.726667 235.56,35.66 C235.706667,35.593333 235.853333,35.5366669 236,35.49 C236.146667,35.4433331 236.279999,35.3933336 236.4,35.34 C236.453334,35.3133332 236.506666,35.2933334 236.56,35.28 C236.613334,35.2666666 236.666666,35.2466668 236.72,35.22 C236.8,35.1933332 236.873333,35.1666668 236.94,35.14 L237.14,35.06 C237.473335,34.9133326 237.789999,34.7766673 238.09,34.65 C238.390001,34.5233327 238.693332,34.3866674 239,34.24 L238.98,34.24 C239.153334,34.1599996 239.326666,34.0833337 239.5,34.01 C239.673334,33.9366663 239.853332,33.8600004 240.04,33.78 L240.02,33.78 C240.193334,33.6999996 240.386666,33.6133338 240.6,33.52 C240.813334,33.4266662 241.013332,33.3400004 241.2,33.26 C243.466678,32.2199948 245.283326,31.3533368 246.65,30.66 C248.016673,29.9666632 249.019997,29.4466684 249.66,29.1 C249.940001,28.9533326 250.176666,28.8266672 250.37,28.72 C250.563334,28.6133328 250.733333,28.5200004 250.88,28.44 C250.906667,28.4266666 250.93,28.4133334 250.95,28.4 C250.97,28.3866666 250.993333,28.3733334 251.02,28.36 L251,28.38 C251.160001,28.2866662 251.313333,28.2000004 251.46,28.12 C251.606667,28.0399996 251.766666,27.9533338 251.94,27.86 L251.96,27.86 C252.253335,27.726666 252.519999,27.66 252.76,27.66 C253.040001,27.66 253.289999,27.7199994 253.51,27.84 C253.730001,27.9600006 253.893333,28.1266656 254,28.34 C254.173334,28.7000018 254.166668,29.0666648 253.98,29.44 C253.793332,29.8133352 253.480002,30.099999 253.04,30.3 C253.013333,30.3133334 252.996667,30.32 252.99,30.32 C252.983333,30.32 252.966667,30.3266666 252.94,30.34 C252.913333,30.3533334 252.88,30.3666666 252.84,30.38 C252.8,30.3933334 252.78,30.3933334 252.78,30.38 C252.686666,30.4066668 252.553334,30.4599996 252.38,30.54 C252.206666,30.6200004 251.913335,30.7399992 251.5,30.9 C251.126665,31.0466674 250.640003,31.2433321 250.04,31.49 C249.439997,31.7366679 248.680005,32.0666646 247.76,32.48 C247.186664,32.746668 246.530004,33.0399984 245.79,33.36 C245.049996,33.6800016 244.240004,34.0333314 243.36,34.42 C243.106665,34.5266672 242.853335,34.6366661 242.6,34.75 C242.346665,34.8633339 242.086668,34.9799994 241.82,35.1 C241.379998,35.2866676 240.923336,35.4899989 240.45,35.71 C239.976664,35.9300011 239.486669,36.1599988 238.98,36.4 L238.08,36.82 L238.1,36.82 C237.846665,36.9400006 237.586668,37.0599994 237.32,37.18 L236.52,37.54 C236.013331,37.7666678 235.486669,37.9966655 234.94,38.23 C234.393331,38.4633345 233.820003,38.6933322 233.22,38.92 C232.59333,39.1333344 231.94667,39.339999 231.28,39.54 C230.61333,39.740001 229.860004,39.873333 229.02,39.94 C228.739999,39.9533334 228.456668,39.9500001 228.17,39.93 C227.883332,39.9099999 227.600001,39.8533338 227.32,39.76 C227.133332,39.6799996 226.956668,39.5900005 226.79,39.49 C226.623333,39.3899995 226.466667,39.2666674 226.32,39.12 C226.039999,38.8399986 225.846667,38.533335 225.74,38.2 L225.74,38.22 C225.633333,37.9266652 225.576667,37.6633345 225.57,37.43 C225.563333,37.1966655 225.566667,36.9733344 225.58,36.76 C225.606667,36.559999 225.626667,36.4233337 225.64,36.35 C225.653333,36.2766663 225.666667,36.206667 225.68,36.14 C225.68,36.1266666 225.683333,36.1133334 225.69,36.1 C225.696667,36.0866666 225.7,36.0733334 225.7,36.06 L225.8,35.72 C225.986668,35.0799968 226.176666,34.5466688 226.37,34.12 C226.563334,33.6933312 226.766666,33.2733354 226.98,32.86 L227.51,31.8 C227.596667,31.6266658 227.699999,31.4300011 227.82,31.21 C227.940001,30.9899989 228.093332,30.713335 228.28,30.38 C227.853331,30.4866672 227.430002,30.5833329 227.01,30.67 C226.589998,30.7566671 226.126669,30.8466662 225.62,30.94 C224.139993,31.206668 222.770006,31.3833329 221.51,31.47 C220.249994,31.5566671 219.086672,31.6 218.02,31.6 C216.953328,31.5866666 216.010004,31.5433337 215.19,31.47 C214.369996,31.3966663 213.653336,31.3066672 213.04,31.2 C211.959995,31.0133324 211.123336,30.8366675 210.53,30.67 C210.177007,30.5708448 209.888906,30.4893873 209.665694,30.4256267 Z M87.3693827,27.9893522 C87.5309178,27.8115649 87.7144556,27.6484488 87.92,27.5 C88.0133338,27.433333 88.0966663,27.3733336 88.17,27.32 C88.2433337,27.2666664 88.313333,27.2133336 88.38,27.16 C88.4600004,27.1066664 88.5466662,27.0533336 88.64,27 C88.7333338,26.9466664 88.846666,26.8733338 88.98,26.78 L89.08,26.68 C89.1333336,26.6533332 89.1799998,26.6200002 89.22,26.58 L89.28,26.52 C89.3066668,26.4933332 89.3333332,26.4733334 89.36,26.46 C89.6400014,26.259999 89.9766647,26.0200014 90.37,25.74 C90.7633353,25.4599986 91.2399972,25.086669 91.8,24.62 C92.2533356,24.2466648 92.7566639,23.8200024 93.31,23.34 C93.8633361,22.8599976 94.4599968,22.3000032 95.1,21.66 C95.6600028,20.5799946 96.2799966,19.3866732 96.96,18.08 C97.6400034,16.7733268 98.4333288,15.320008 99.34,13.72 C99.3533334,13.7066666 99.3766665,13.666667 99.41,13.6 L99.5,13.42 C99.8066682,12.8999974 100.116665,12.3766693 100.43,11.85 C100.743335,11.3233307 101.059998,10.8400022 101.38,10.4 C101.406667,10.3599998 101.453333,10.3000004 101.52,10.22 L101.72,9.98 L101.8,9.9 C101.826667,9.8599998 101.866666,9.8133336 101.92,9.76 C101.973334,9.7066664 102.033333,9.6666668 102.1,9.64 L102.14,9.62 C102.126667,9.62 102.113333,9.6266666 102.1,9.64 L102.28,9.46 C102.306667,9.46 102.32,9.4666666 102.32,9.48 C102.333333,9.4666666 102.36,9.4533334 102.4,9.44 C102.44,9.4266666 102.533333,9.3933336 102.68,9.34 L102.92,9.34 C102.96,9.34 103.006666,9.3466666 103.06,9.36 C103.113334,9.3733334 103.173333,9.3933332 103.24,9.42 L103.26,9.4 C103.580002,9.5466674 103.786666,9.7066658 103.88,9.88 C103.973334,10.0533342 104.066666,10.239999 104.16,10.44 L104.18,10.56 C104.193333,10.6133336 104.2,10.6699997 104.2,10.73 L104.2,10.86 C104.2,10.9800006 104.196667,11.0933328 104.19,11.2 C104.183333,11.3066672 104.173333,11.393333 104.16,11.46 C104.12,11.7400014 104.056667,12.0199986 103.97,12.3 C103.883333,12.5800014 103.8,12.853332 103.72,13.12 L103.66,13.32 C103.233331,14.4000054 102.746669,15.3866622 102.2,16.28 C101.653331,17.1733378 101.106669,18.0066628 100.56,18.78 C99.7999962,19.8333386 99.0500037,20.7766625 98.31,21.61 C97.5699963,22.4433375 96.8600034,23.1999966 96.18,23.88 C95.9266654,24.3866692 95.6933344,24.8599978 95.48,25.3 C95.2666656,25.7400022 95.060001,26.1666646 94.86,26.58 L94.86,26.56 C94.1666632,28.026674 93.5966689,29.3033279 93.15,30.39 C92.7033311,31.4766721 92.3000018,32.4799954 91.94,33.4 L91.92,33.42 C91.92,33.4333334 91.9166667,33.4433333 91.91,33.45 C91.9033333,33.4566667 91.9,33.4666666 91.9,33.48 C92.3533356,33.4666666 92.7966645,33.4466668 93.23,33.42 C93.6633355,33.3933332 94.146664,33.3666668 94.68,33.34 C96.946678,33.1666658 98.9733244,32.9200016 100.76,32.6 C102.546676,32.2799984 104.046661,31.953335 105.26,31.62 C106.473339,31.3133318 107.523329,31.0100015 108.41,30.71 C109.296671,30.4099985 110.066663,30.126668 110.72,29.86 C111.440004,29.593332 112.009998,29.3700009 112.43,29.19 C112.850002,29.0099991 113.219998,28.8466674 113.54,28.7 C113.593334,28.6733332 113.65,28.6466668 113.71,28.62 C113.77,28.5933332 113.826666,28.5666668 113.88,28.54 C113.96,28.5133332 114.04,28.4833335 114.12,28.45 C114.2,28.4166665 114.286666,28.3800002 114.38,28.34 L114.36,28.34 C114.453334,28.2866664 114.546666,28.2400002 114.64,28.2 C114.733334,28.1599998 114.82,28.1266668 114.9,28.1 L114.88,28.12 C115.400003,27.8933322 115.873331,27.78 116.3,27.78 C116.580001,27.78 116.823332,27.8299995 117.03,27.93 C117.236668,28.0300005 117.386666,28.179999 117.48,28.38 L117.5,28.4 C117.566667,28.5600008 117.573334,28.739999 117.52,28.94 C117.466666,29.140001 117.370001,29.3333324 117.23,29.52 C117.089999,29.7066676 116.910001,29.8899991 116.69,30.07 C116.469999,30.2500009 116.226668,30.3999994 115.96,30.52 C115.933333,30.5333334 115.906667,30.5433333 115.88,30.55 C115.853333,30.5566667 115.826667,30.5666666 115.8,30.58 C115.693333,30.6200002 115.576667,30.6666664 115.45,30.72 C115.323333,30.7733336 115.146668,30.8399996 114.92,30.92 C114.786666,30.9600002 114.636668,31.0099997 114.47,31.07 C114.303333,31.1300003 114.093335,31.2066662 113.84,31.3 C113.733333,31.3400002 113.610001,31.3833331 113.47,31.43 C113.329999,31.4766669 113.186667,31.5266664 113.04,31.58 L112.86,31.64 L112.88,31.64 C112.333331,31.8266676 111.563338,32.0766651 110.57,32.39 C109.576662,32.7033349 108.39334,33.0333316 107.02,33.38 C105.526659,33.7533352 103.726677,34.1333314 101.62,34.52 C99.5133228,34.9066686 97.12668,35.1799992 94.46,35.34 C94.1533318,35.3533334 93.8733346,35.3666666 93.62,35.38 C93.3666654,35.3933334 93.1166679,35.4066666 92.87,35.42 C92.6233321,35.4333334 92.3633347,35.4433333 92.09,35.45 C91.8166653,35.4566667 91.513335,35.46 91.18,35.46 C91.1666666,35.4866668 91.16,35.5066666 91.16,35.52 C91.16,35.5333334 91.1533334,35.5533332 91.14,35.58 C91.0333328,35.8733348 90.9333338,36.1333322 90.84,36.36 C90.7466662,36.5866678 90.6466672,36.8733316 90.54,37.22 C90.9266686,37.7266692 91.319998,38.2699971 91.72,38.85 C92.120002,39.4300029 92.5333312,40.0799964 92.96,40.8 C92.9866668,40.866667 93.0233331,40.9299997 93.07,40.99 C93.1166669,41.0500003 93.1533332,41.113333 93.18,41.18 C93.2866672,41.3933344 93.3966661,41.6099989 93.51,41.83 C93.6233339,42.0500011 93.7266662,42.2733322 93.82,42.5 C93.82,42.5533336 93.8266666,42.5866666 93.84,42.6 C93.8933336,42.7866676 93.9433331,42.9699991 93.99,43.15 C94.0366669,43.3300009 94.06,43.5399988 94.06,43.78 C94.06,43.9400008 94.0300003,44.1333322 93.97,44.36 C93.9099997,44.5866678 93.7666678,44.8266654 93.54,45.08 C93.2866654,45.3333346 93.0300013,45.4833331 92.77,45.53 C92.5099987,45.5766669 92.2866676,45.5933334 92.1,45.58 C91.7933318,45.5533332 91.540001,45.5000004 91.34,45.42 C91.139999,45.3399996 90.9466676,45.2533338 90.76,45.16 C90.6533328,45.1066664 90.5100009,45.0200006 90.33,44.9 C90.1499991,44.7799994 89.9866674,44.6600006 89.84,44.54 C89.5599986,44.3133322 89.286668,44.0733346 89.02,43.82 C88.753332,43.5666654 88.5133344,43.306668 88.3,43.04 C88.1799994,42.8799992 88.0566673,42.6933344 87.93,42.48 C87.8033327,42.2666656 87.6800006,42.026668 87.56,41.76 C87.4133326,41.4133316 87.3333334,41.1100013 87.32,40.85 C87.3066666,40.5899987 87.3133332,40.360001 87.34,40.16 C87.34,40.1466666 87.3433333,40.1300001 87.35,40.11 C87.3566667,40.0899999 87.36,40.0733334 87.36,40.06 C87.4000002,39.6733314 87.4599996,39.3033351 87.54,38.95 C87.6200004,38.5966649 87.7133328,38.253335 87.82,37.92 L87.82,37.94 C87.82,37.8999998 87.8333332,37.8533336 87.86,37.8 L87.9,37.72 C87.9133334,37.6666664 87.9233333,37.6166669 87.93,37.57 C87.9366667,37.5233331 87.9533332,37.4533338 87.98,37.36 C87.9399998,37.293333 87.9033335,37.2433335 87.87,37.21 C87.8366665,37.1766665 87.7933336,37.126667 87.74,37.06 L87.72,37.04 C87.6133328,36.9466662 87.5133338,36.8266674 87.42,36.68 C87.3933332,36.6533332 87.3766667,36.6300001 87.37,36.61 C87.3633333,36.5899999 87.3466668,36.5666668 87.32,36.54 C87.2933332,36.5133332 87.2766667,36.4866668 87.27,36.46 C87.2633333,36.4333332 87.2466668,36.4066668 87.22,36.38 L87.26,36.42 L86.96,36.06 C86.893333,35.9666662 86.8300003,35.886667 86.77,35.82 C86.7099997,35.753333 86.6666668,35.6933336 86.64,35.64 L86.56,35.52 C86.5333332,35.4933332 86.5033335,35.4600002 86.47,35.42 C86.4366665,35.3799998 86.4066668,35.3466668 86.38,35.32 L85.44,33.28 L89.48,33.48 C89.6266674,33.146665 89.7799992,32.8066684 89.94,32.46 C90.1000008,32.1133316 90.2533326,31.773335 90.4,31.44 C90.466667,31.2933326 90.5399996,31.1333342 90.62,30.96 C90.7000004,30.7866658 90.773333,30.6266674 90.84,30.48 C90.8533334,30.4533332 90.86,30.4300001 90.86,30.41 C90.86,30.3899999 90.8666666,30.3666668 90.88,30.34 C90.9066668,30.2866664 90.9333332,30.2400002 90.96,30.2 C91.093334,29.8933318 91.193333,29.6666674 91.26,29.52 C91.326667,29.3733326 91.3966663,29.2233341 91.47,29.07 C91.5433337,28.9166659 91.6299995,28.7300011 91.73,28.51 C91.8300005,28.2899989 91.9933322,27.9533356 92.22,27.5 C91.9666654,27.7133344 91.7466676,27.8933326 91.56,28.04 L91,28.48 C90.8533326,28.6000006 90.7200006,28.7033329 90.6,28.79 C90.4799994,28.8766671 90.3666672,28.9599996 90.26,29.04 C90.193333,29.106667 90.1233337,29.1666664 90.05,29.22 C89.9766663,29.2733336 89.9133336,29.3199998 89.86,29.36 C89.8199998,29.4000002 89.7700003,29.4433331 89.71,29.49 C89.6499997,29.5366669 89.62,29.5533334 89.62,29.54 L89.55,29.61 C89.5299999,29.6300001 89.5066668,29.6466666 89.48,29.66 C89.342004,29.7603607 89.2032712,29.8489176 89.0638009,29.9256709 C89.0625361,29.9271147 89.0612692,29.9285577 89.06,29.93 C88.9133326,30.0966675 88.740001,30.246666 88.54,30.38 C88.4866664,30.4066668 88.4366669,30.4366665 88.39,30.47 C88.3433331,30.5033335 88.2800004,30.5466664 88.2,30.6 L88.12,30.64 C88.0933332,30.6533334 88.0700001,30.6633333 88.05,30.67 C88.0299999,30.6766667 88.0133334,30.6866666 88,30.7 C87.866666,30.766667 87.6833345,30.8599994 87.45,30.98 C87.2166655,31.1000006 86.9266684,31.2666656 86.58,31.48 C86.179998,31.7200012 85.6700031,32.0333314 85.05,32.42 C84.4299969,32.8066686 83.6566713,33.2966637 82.73,33.89 C81.8033287,34.4833363 80.706673,35.1999958 79.44,36.04 C78.173327,36.8800042 76.7000084,37.866661 75.02,39 C74.0999954,39.6133364 73.1466716,40.286663 72.16,41.02 C71.1733284,41.753337 70.1000058,42.5599956 68.94,43.44 C67.939995,44.2133372 66.8300061,45.0766619 65.61,46.03 C64.3899939,46.9833381 63.1666728,47.9399952 61.94,48.9 C61.8866664,49.1133344 61.8333336,49.3333322 61.78,49.56 C61.7266664,49.7866678 61.666667,50.0133322 61.6,50.24 C61.266665,51.3200054 60.8833355,52.326662 60.45,53.26 C60.0166645,54.193338 59.5066696,54.99333 58.92,55.66 C58.6133318,56.0066684 58.2866684,56.313332 57.94,56.58 C57.5933316,56.846668 57.2266686,57.0599992 56.84,57.22 C56.4666648,57.3666674 56.0833353,57.4866662 55.69,57.58 C55.2966647,57.6733338 54.933335,57.7266666 54.6,57.74 C54.4133324,57.74 54.2300009,57.7333334 54.05,57.72 C53.8699991,57.7066666 53.7066674,57.6866668 53.56,57.66 C53.293332,57.6066664 53.0433345,57.5066674 52.81,57.36 C52.5766655,57.2133326 52.4066672,56.9800016 52.3,56.66 L52.32,56.68 C52.1999994,56.3999986 52.1533332,56.1500011 52.18,55.93 C52.2066668,55.7099989 52.253333,55.5066676 52.32,55.32 C52.386667,55.1466658 52.453333,54.993334 52.52,54.86 C52.586667,54.726666 52.653333,54.6066672 52.72,54.5 C52.9466678,54.1533316 53.1866654,53.8233349 53.44,53.51 C53.6933346,53.1966651 53.9333322,52.9000014 54.16,52.62 L54.12,52.66 C54.1466668,52.6333332 54.1766665,52.5966669 54.21,52.55 C54.2433335,52.5033331 54.2733332,52.4666668 54.3,52.44 C54.7533356,51.9466642 55.2499973,51.4433359 55.79,50.93 C56.3300027,50.4166641 56.9133302,49.893336 57.54,49.36 C57.9266686,49.0133316 58.3266646,48.6633351 58.74,48.31 C59.1533354,47.9566649 59.6533304,47.5666688 60.24,47.14 C60.3333338,46.673331 60.4166663,46.2366687 60.49,45.83 C60.5633337,45.4233313 60.633333,45.0066688 60.7,44.58 C60.8066672,43.8333296 60.9066662,43.0800038 61,42.32 C61.0933338,41.5599962 61.173333,40.8666698 61.24,40.24 C61.2533334,40.1466662 61.2666666,40.0433339 61.28,39.93 C61.2933334,39.8166661 61.3066666,39.7133338 61.32,39.62 C61.3333334,39.5266662 61.3433333,39.4366671 61.35,39.35 C61.3566667,39.2633329 61.3666666,39.1800004 61.38,39.1 C61.4066668,38.9133324 61.4299999,38.720001 61.45,38.52 C61.4700001,38.319999 61.4933332,38.1266676 61.52,37.94 C61.6133338,37.139996 61.6966663,36.4100033 61.77,35.75 C61.8433337,35.0899967 61.9266662,34.4800028 62.02,33.92 C62.127016,33.3100087 62.2404726,32.7386759 62.360372,32.2059908 C62.2535814,32.26556 62.1467913,32.3268961 62.04,32.39 C61.8933326,32.4766671 61.7466674,32.5666662 61.6,32.66 L61.16,32.92 C61.093333,32.9600002 61.026667,32.9933332 60.96,33.02 C60.893333,33.0466668 60.8466668,33.0733332 60.82,33.1 C60.1666634,33.4733352 59.4133376,33.893331 58.56,34.36 C57.7066624,34.826669 56.7333388,35.3199974 55.64,35.84 C55.5866664,35.8666668 55.526667,35.8933332 55.46,35.92 C55.393333,35.9466668 55.3400002,35.9733332 55.3,36 C55.233333,36.0266668 55.1766669,36.0533332 55.13,36.08 C55.0833331,36.1066668 55.0400002,36.1333332 55,36.16 C54.3599968,36.4666682 53.6766703,36.786665 52.95,37.12 C52.2233297,37.453335 51.3866714,37.753332 50.44,38.02 C49.8799972,38.1800008 49.300003,38.3233327 48.7,38.45 C48.099997,38.5766673 47.4600034,38.6266668 46.78,38.6 C46.4199982,38.5733332 46.0433353,38.5166671 45.65,38.43 C45.2566647,38.3433329 44.8800018,38.2133342 44.52,38.04 C44.1333314,37.8533324 43.7700017,37.5900017 43.43,37.25 C43.0899983,36.9099983 42.8133344,36.5466686 42.6,36.16 C42.4266658,35.826665 42.2933338,35.5000016 42.2,35.18 C42.1066662,34.8599984 42.0333336,34.5466682 41.98,34.24 C41.6733318,34.573335 41.320002,34.906665 40.92,35.24 L40.94,35.24 C40.6599986,35.506668 40.3433351,35.7833319 39.99,36.07 C39.6366649,36.3566681 39.2333356,36.666665 38.78,37 C38.3266644,37.3200016 37.8166695,37.6566649 37.25,38.01 C36.6833305,38.3633351 36.06667,38.673332 35.4,38.94 L35.42,38.92 C34.7933302,39.1733346 34.180003,39.3566661 33.58,39.47 C32.979997,39.5833339 32.3866696,39.64 31.8,39.64 L31.44,39.64 C31.306666,39.64 31.1933338,39.6333334 31.1,39.62 C30.7799984,39.5933332 30.4333352,39.5300005 30.06,39.43 C29.6866648,39.3299995 29.3466682,39.1866676 29.04,39 C28.706665,38.799999 28.4100013,38.5366683 28.15,38.21 C27.8899987,37.8833317 27.7066672,37.5600016 27.6,37.24 C27.4933328,36.906665 27.4300001,36.5933348 27.41,36.3 C27.3899999,36.0066652 27.3866666,35.7200014 27.4,35.44 C27.4266668,35.1466652 27.4599998,34.8900011 27.5,34.67 C27.5400002,34.4499989 27.5866664,34.2333344 27.64,34.02 C27.7466672,33.6733316 27.8599994,33.3266684 27.98,32.98 C28.0088964,32.8965214 28.0385659,32.8134297 28.0690084,32.7307248 C28.0533214,32.7400504 28.0369853,32.7498088 28.02,32.76 L28.06,32.74 C27.993333,32.7933336 27.9200004,32.8433331 27.84,32.89 C27.7599996,32.9366669 27.6800004,32.9866664 27.6,33.04 C27.0399972,33.4000018 26.3900037,33.8199976 25.65,34.3 C24.9099963,34.7800024 24.0666714,35.35333 23.12,36.02 C21.78666,36.9400046 20.2333422,38.0433269 18.46,39.33 C16.6866578,40.6166731 14.6466782,42.1866574 12.34,44.04 L12.34,44.02 C11.7133302,44.5266692 11.0866698,45.0599972 10.46,45.62 C9.8333302,46.1800028 9.1800034,46.7799968 8.5,47.42 L8.5,47.4 L8.36,47.54 C8.1999992,47.6866674 8.0500007,47.826666 7.91,47.96 C7.7699993,48.093334 7.6133342,48.2466658 7.44,48.42 C7.0799982,49.020003 6.6900021,49.65333 6.27,50.32 C5.8499979,50.98667 5.3866692,51.6999962 4.88,52.46 C4.4933314,53.0333362 4.1133352,53.586664 3.74,54.12 C3.3666648,54.653336 3.0066684,55.153331 2.66,55.62 L2.68,55.6 C2.6533332,55.6266668 2.6266668,55.6599998 2.6,55.7 C2.5733332,55.7400002 2.5466668,55.7733332 2.52,55.8 L2.16,56.18 L1.9,56.18 C1.8733332,56.18 1.7833341,56.1766667 1.63,56.17 C1.4766659,56.1633333 1.2866678,56.16 1.06,56.16 C0.9133326,55.959999 0.8200002,55.8200004 0.78,55.74 C0.7399998,55.6599996 0.7066668,55.586667 0.68,55.52 C0.6666666,55.4933332 0.6533334,55.4566669 0.64,55.41 C0.6266666,55.3633331 0.5933336,55.2866672 0.54,55.18 L0.56,54.94 L0.58,55.04 C0.58,55.0133332 0.5766667,54.9733336 0.57,54.92 C0.5633333,54.8666664 0.56,54.8266668 0.56,54.8 L0.56,54.68 C0.5866668,54.4533322 0.6199998,54.2533342 0.66,54.08 C0.7000002,53.9066658 0.7466664,53.7466674 0.8,53.6 C0.9200006,53.2933318 1.046666,53.0166679 1.18,52.77 C1.313334,52.5233321 1.4533326,52.2866678 1.6,52.06 C2.0933358,51.326663 2.5933308,50.6666696 3.1,50.08 C3.6066692,49.4933304 4.1199974,48.933336 4.64,48.4 C4.6533334,48.3866666 4.6633333,48.3700001 4.67,48.35 C4.6766667,48.3299999 4.6933332,48.3066668 4.72,48.28 C4.7333334,48.2666666 4.74,48.2533334 4.74,48.24 C4.8866674,48.0133322 5.0299993,47.7700013 5.17,47.51 C5.3100007,47.2499987 5.4533326,47.0066678 5.6,46.78 C6.400004,45.44666 7.0766639,44.280005 7.63,43.28 C8.1833361,42.279995 8.6866644,41.3666708 9.14,40.54 C9.1933336,40.4466662 9.2433331,40.3566671 9.29,40.27 C9.3366669,40.1833329 9.3866664,40.1000004 9.44,40.02 L9.42,40.06 C9.5400006,39.8333322 9.6599994,39.6033345 9.78,39.37 C9.9000006,39.1366655 10.0199994,38.9066678 10.14,38.68 L10.14,38.7 C10.4466682,38.1133304 10.7533318,37.5433361 11.06,36.99 C11.3666682,36.4366639 11.6733318,35.860003 11.98,35.26 C12.380002,34.459996 12.8433307,33.5200054 13.37,32.44 C13.8966693,31.3599946 14.4466638,30.1733398 15.02,28.88 C15.3133348,28.1999966 15.6399982,27.4300043 16,26.57 C16.3600018,25.7099957 16.7366647,24.7766717 17.13,23.77 C17.5233353,22.7633283 17.9299979,21.6966723 18.35,20.57 C18.7700021,19.4433277 19.179998,18.2866726 19.58,17.1 C19.9666686,15.9266608 20.3466648,14.7500059 20.72,13.57 C21.0933352,12.3899941 21.4266652,11.2800052 21.72,10.24 C20.9733296,10.8133362 20.2433369,11.3266644 19.53,11.78 C18.8166631,12.2333356 18.12667,12.6333316 17.46,12.98 C16.79333,13.3266684 16.1566697,13.633332 15.55,13.9 C14.9433303,14.166668 14.373336,14.399999 13.84,14.6 C12.6933276,15.0266688 11.6933376,15.3499989 10.84,15.57 C9.9866624,15.7900011 9.2733362,15.9599994 8.7,16.08 C8.2199976,16.1866672 7.8033351,16.2633331 7.45,16.31 C7.0966649,16.3566669 6.8266676,16.3933332 6.64,16.42 C6.6266666,16.42 6.62,16.4233333 6.62,16.43 C6.62,16.4366667 6.6066668,16.44 6.58,16.44 C6.2333316,16.4800002 5.9100015,16.4766669 5.61,16.43 C5.3099985,16.3833331 5.0433345,16.3033339 4.81,16.19 C4.5766655,16.0766661 4.393334,15.9400008 4.26,15.78 C4.126666,15.6199992 4.06,15.440001 4.06,15.24 C4.06,14.8799982 4.2699979,14.566668 4.69,14.3 C5.1100021,14.033332 5.619997,13.8600004 6.22,13.78 C6.2733336,13.7533332 6.3199998,13.7433333 6.36,13.75 C6.4000002,13.7566667 6.453333,13.76 6.52,13.76 C6.6133338,13.76 6.6733332,13.7533334 6.7,13.74 C6.7800004,13.7266666 6.8666662,13.7166667 6.96,13.71 C7.0533338,13.7033333 7.166666,13.6866668 7.3,13.66 L7.28,13.66 C7.3333336,13.6466666 7.3833331,13.64 7.43,13.64 C7.4766669,13.64 7.533333,13.6333334 7.6,13.62 C7.9866686,13.5666664 8.4866636,13.4833339 9.1,13.37 C9.7133364,13.2566661 10.453329,13.0866678 11.32,12.86 L11.3,12.86 C11.7933358,12.7133326 12.3233305,12.5500009 12.89,12.37 C13.4566695,12.1899991 14.0466636,11.966668 14.66,11.7 C15.3000032,11.433332 15.986663,11.1066686 16.72,10.72 C17.453337,10.3333314 18.2599956,9.8600028 19.14,9.3 C19.540002,9.033332 19.9766643,8.7300017 20.45,8.39 C20.9233357,8.0499983 21.3399982,7.7333348 21.7,7.44 C21.766667,7.373333 21.8533328,7.2966671 21.96,7.21 C22.0666672,7.1233329 22.153333,7.046667 22.22,6.98 L22.43,6.8 C22.4766669,6.7599998 22.5466662,6.6933338 22.64,6.6 C22.8133342,6.1733312 23.0399986,5.9566667 23.32,5.95 C23.6000014,5.9433333 23.8799986,6.0533322 24.16,6.28 L24.12,6.36 C24.186667,6.3866668 24.2599996,6.4166665 24.34,6.45 C24.4200004,6.4833335 24.5133328,6.5266664 24.62,6.58 C24.686667,6.6200002 24.7766661,6.6833329 24.89,6.77 C25.0033339,6.8566671 25.1199994,6.9466662 25.24,7.04 L24.62,7.68 L24.62,7.7 L24.52,7.94 C24.4933332,7.9933336 24.48,8.0399998 24.48,8.08 C24.4666666,8.1200002 24.4566667,8.1633331 24.45,8.21 C24.4433333,8.2566669 24.4333334,8.2933332 24.42,8.32 C24.3933332,8.4266672 24.3700001,8.5166663 24.35,8.59 C24.3299999,8.6633337 24.3066668,8.7466662 24.28,8.84 C23.9066648,10.1466732 23.4900023,11.5433259 23.03,13.03 C22.5699977,14.5166741 22.0533362,16.093325 21.48,17.76 C20.946664,19.2800076 20.4300025,20.6866602 19.93,21.98 C19.4299975,23.2733398 18.9533356,24.4766611 18.5,25.59 C18.0466644,26.7033389 17.6166687,27.7333286 17.21,28.68 C16.8033313,29.6266714 16.4266684,30.499996 16.08,31.3 C15.3733298,32.900008 14.7466694,34.2899941 14.2,35.47 C13.6533306,36.6500059 13.1533356,37.7266618 12.7,38.7 C12.3533316,39.433337 12.0100017,40.1399966 11.67,40.82 C11.3299983,41.5000034 10.9666686,42.206663 10.58,42.94 C10.7000006,42.8333328 10.8233327,42.7266672 10.95,42.62 C11.0766673,42.5133328 11.206666,42.4066672 11.34,42.3 C13.206676,40.766659 14.8899925,39.433339 16.39,38.3 C17.8900075,37.166661 19.2133276,36.1800042 20.36,35.34 C20.3866668,35.3266666 20.4099999,35.3133334 20.43,35.3 C20.4500001,35.2866666 20.4733332,35.2733334 20.5,35.26 C20.5400002,35.2333332 20.5866664,35.2000002 20.64,35.16 C20.6933336,35.1199998 20.7333332,35.0866668 20.76,35.06 C21.3466696,34.6333312 21.8933308,34.2333352 22.4,33.86 C22.9066692,33.4866648 23.3733312,33.1466682 23.8,32.84 C23.9733342,32.7199994 24.1433325,32.6000006 24.31,32.48 C24.4766675,32.3599994 24.6333326,32.2466672 24.78,32.14 C25.180002,31.8599986 25.5399984,31.6000012 25.86,31.36 C26.1133346,31.1733324 26.3433323,31.0066674 26.55,30.86 C26.7566677,30.7133326 26.9533324,30.573334 27.14,30.44 C27.206667,30.3866664 27.2699997,30.3400002 27.33,30.3 C27.3900003,30.2599998 27.453333,30.2133336 27.52,30.16 C27.7600012,29.9866658 27.9733324,29.8266674 28.16,29.68 C28.493335,29.4399988 28.793332,29.2266676 29.06,29.04 C29.326668,28.8533324 29.626665,28.6466678 29.96,28.42 C30.1863149,28.2822431 30.4162581,28.166272 30.6498333,28.0720851 C30.767407,27.9988137 30.8941291,27.9414521 31.03,27.9 C31.2157659,27.8433256 31.3888911,27.8208527 31.5493764,27.8325812 C31.6283476,27.8241937 31.7052221,27.82 31.78,27.82 C31.9666676,27.82 32.1433325,27.8499997 32.31,27.91 C32.4766675,27.9700003 32.6066662,28.0733326 32.7,28.22 L32.68,28.22 C32.7733338,28.3666674 32.8133334,28.5433323 32.8,28.75 C32.7866666,28.9566677 32.7233339,29.1699989 32.61,29.39 C32.5926804,29.4236205 32.5743488,29.4573187 32.5550052,29.4910947 C32.5481007,29.5340631 32.5397656,29.5770314 32.53,29.62 C32.4966665,29.7666674 32.4400004,29.9133326 32.36,30.06 C32.3333332,30.0866668 32.3066668,30.1166665 32.28,30.15 C32.2533332,30.1833335 32.2266668,30.2266664 32.2,30.28 L32.22,30.26 C32.1933332,30.2866668 32.1733334,30.3166665 32.16,30.35 C32.1466666,30.3833335 32.1200002,30.4199998 32.08,30.46 C31.9733328,30.6066674 31.8300009,30.8166653 31.65,31.09 C31.4699991,31.3633347 31.2400014,31.7399976 30.96,32.22 C30.826666,32.4466678 30.6900007,32.7033319 30.55,32.99 C30.4099993,33.2766681 30.2933338,33.5333322 30.2,33.76 C30.0799994,34.0533348 29.9633339,34.3833315 29.85,34.75 C29.7366661,35.1166685 29.6666668,35.4933314 29.64,35.88 C29.6266666,36.0400008 29.6299999,36.1966659 29.65,36.35 C29.6700001,36.5033341 29.713333,36.6333328 29.78,36.74 C29.8733338,36.9133342 30.0066658,37.0566661 30.18,37.17 C30.3533342,37.2833339 30.539999,37.3666664 30.74,37.42 L30.72,37.4 C31.2133358,37.5066672 31.6466648,37.56 32.02,37.56 C32.8333374,37.56 33.7199952,37.3866684 34.68,37.04 C35.3866702,36.7866654 36.0166639,36.493335 36.57,36.16 C37.1233361,35.826665 37.6133312,35.4866684 38.04,35.14 C38.4800022,34.7933316 38.8833315,34.453335 39.25,34.12 C39.6166685,33.786665 39.933332,33.4800014 40.2,33.2 C40.6133354,32.7733312 40.9799984,32.3566687 41.3,31.95 C41.6200016,31.5433313 41.9066654,31.1666684 42.16,30.82 C42.1733334,30.7266662 42.213333,30.6066674 42.28,30.46 L42.28,30.36 L42.4,30.5 C42.4133334,30.4733332 42.4999992,30.4100005 42.66,30.31 C42.8200008,30.2099995 42.999999,30.1100005 43.2,30.01 C43.400001,29.9099995 43.5799992,29.8233337 43.74,29.75 C43.9000008,29.6766663 43.9866666,29.6599998 44,29.7 L44.4,31.22 L44.34,31.54 L44.38,31.44 C44.3666666,31.5200004 44.36,31.5999996 44.36,31.68 C44.36,31.7600004 44.3533334,31.833333 44.34,31.9 C44.34,31.9400002 44.3366667,31.9766665 44.33,32.01 C44.3233333,32.0433335 44.32,32.0733332 44.32,32.1 C44.3066666,32.2066672 44.3,32.3033329 44.3,32.39 L44.3,33.06 C44.3,33.193334 44.3133332,33.3333326 44.34,33.48 C44.3666668,33.7200012 44.4066664,33.9666654 44.46,34.22 C44.5133336,34.4733346 44.606666,34.7266654 44.74,34.98 C44.8466672,35.2066678 45.0066656,35.4233323 45.22,35.63 C45.4333344,35.8366677 45.7133316,35.9999994 46.06,36.12 L46.04,36.12 C46.2800012,36.2000004 46.5266654,36.2566665 46.78,36.29 C47.0333346,36.3233335 47.2799988,36.34 47.52,36.34 C47.7466678,36.3266666 47.9866654,36.3100001 48.24,36.29 C48.4933346,36.2699999 48.7333322,36.2400002 48.96,36.2 C49.4133356,36.1199996 49.8266648,36.0300005 50.2,35.93 C50.5733352,35.8299995 50.9133318,35.7266672 51.22,35.62 L51.2,35.62 C51.8800034,35.3799988 52.5033305,35.126668 53.07,34.86 C53.6366695,34.593332 54.2599966,34.3066682 54.94,34 C55.9533384,33.4799974 56.8833291,32.9700025 57.73,32.47 C58.5766709,31.9699975 59.2933304,31.5333352 59.88,31.16 C60.480003,30.7733314 60.979998,30.446668 61.38,30.18 C61.780002,29.913332 62.1199986,29.6733344 62.4,29.46 C62.5600008,29.3399994 62.7033327,29.2333338 62.83,29.14 C62.9566673,29.0466662 63.0733328,28.9600004 63.18,28.88 L63.38,28.72 C63.446667,28.6666664 63.513333,28.6200002 63.58,28.58 L63.56,28.6 C63.6133336,28.5733332 63.6533332,28.5466668 63.68,28.52 L64.04,28.24 C64.1600006,28.1466662 64.2933326,28.0533338 64.44,27.96 L64.42,27.96 C64.7133348,27.759999 65.0399982,27.66 65.4,27.66 C65.6266678,27.66 65.8333324,27.7033329 66.02,27.79 C66.2066676,27.8766671 66.3599994,28.0133324 66.48,28.2 C66.680001,28.5066682 66.7166673,28.8533314 66.59,29.24 C66.4720266,29.6001292 66.2586376,29.8966419 65.9498271,30.1295455 C65.9265515,30.1682682 65.9032758,30.2050863 65.88,30.24 L65.84,30.28 C65.7866664,30.346667 65.7300003,30.4233329 65.67,30.51 C65.6099997,30.5966671 65.546667,30.7133326 65.48,30.86 C65.3733328,31.0733344 65.2466674,31.3599982 65.1,31.72 C64.9533326,32.0800018 64.8066674,32.559997 64.66,33.16 C64.5133326,33.7466696 64.3600008,34.5199952 64.2,35.48 C64.0399992,36.4400048 63.860001,37.6466594 63.66,39.1 C63.593333,39.5266688 63.5333336,39.9666644 63.48,40.42 C63.4533332,40.6466678 63.4233335,40.8733322 63.39,41.1 C63.3566665,41.3266678 63.3200002,41.5666654 63.28,41.82 C63.2266664,42.1666684 63.1766669,42.5233315 63.13,42.89 C63.0833331,43.2566685 63.026667,43.6266648 62.96,44 C62.9466666,44.0533336 62.9333334,44.1033331 62.92,44.15 C62.9066666,44.1966669 62.8933334,44.2399998 62.88,44.28 C62.8666666,44.3066668 62.86,44.3399998 62.86,44.38 C62.86,44.4200002 62.8533334,44.4533332 62.84,44.48 C62.773333,44.546667 62.7366667,44.6566659 62.73,44.81 C62.7233333,44.9633341 62.7266666,45.1199992 62.74,45.28 C62.8466672,45.1999996 62.9399996,45.1333336 63.02,45.08 L63,45.1 C63.8800044,44.4599968 64.6699965,43.8900025 65.37,43.39 C66.0700035,42.8899975 66.7133304,42.4333354 67.3,42.02 C67.500001,41.8733326 67.699999,41.733334 67.9,41.6 C68.100001,41.466666 68.2866658,41.333334 68.46,41.2 C68.6066674,41.0933328 68.7566659,40.9900005 68.91,40.89 C69.0633341,40.7899995 69.206666,40.6866672 69.34,40.58 C69.7533354,40.2999986 70.1533314,40.0200014 70.54,39.74 C70.6866674,39.6333328 70.8533324,39.513334 71.04,39.38 C71.2266676,39.246666 71.3933326,39.1266672 71.54,39.02 C71.7800012,38.8333324 72.0266654,38.6566675 72.28,38.49 C72.5333346,38.3233325 72.793332,38.1466676 73.06,37.96 L73.04,37.96 C73.2133342,37.8399994 73.3933324,37.7166673 73.58,37.59 C73.7666676,37.4633327 73.9533324,37.333334 74.14,37.2 L74.14,37.22 C75.5133402,36.2599952 76.7233281,35.4200036 77.77,34.7 C78.8166719,33.9799964 79.739996,33.3400028 80.54,32.78 C81.3800042,32.2066638 82.1133302,31.6966689 82.74,31.25 C83.3666698,30.8033311 83.8733314,30.4333348 84.26,30.14 C84.5533348,29.939999 84.8166655,29.7533342 85.05,29.58 C85.2833345,29.4066658 85.4866658,29.2600006 85.66,29.14 L85.7,29.12 C85.966668,28.9066656 86.2066656,28.7266674 86.42,28.58 C86.6333344,28.4333326 86.8599988,28.2866674 87.1,28.14 C87.1897945,28.0838785 87.2795886,28.0336625 87.3693827,27.9893522 Z M57.86,53.9 C58.126668,53.5266648 58.3833321,53.0933358 58.63,52.6 C58.8766679,52.1066642 59.0933324,51.5866694 59.28,51.04 C58.879998,51.373335 58.5100017,51.6799986 58.17,51.96 C57.8299983,52.2400014 57.5133348,52.513332 57.22,52.78 L57.13,52.87 C57.0966665,52.9033335 57.0666668,52.9266666 57.04,52.94 C56.6133312,53.3266686 56.2066686,53.7066648 55.82,54.08 C55.4333314,54.4533352 55.0466686,54.8666644 54.66,55.32 L54.64,55.36 C54.5999998,55.426667 54.5566669,55.493333 54.51,55.56 C54.4633331,55.626667 54.4266668,55.693333 54.4,55.76 C54.7866686,55.7866668 55.1666648,55.7533338 55.54,55.66 C55.9000018,55.5399994 56.2999978,55.3266682 56.74,55.02 C57.1800022,54.7133318 57.5533318,54.3400022 57.86,53.9 Z M91.1,42.14 C90.9533326,41.873332 90.8200006,41.6300011 90.7,41.41 C90.5799994,41.1899989 90.4666672,40.980001 90.36,40.78 L90.34,40.8 C90.2866664,40.7199996 90.2366669,40.6433337 90.19,40.57 C90.1433331,40.4966663 90.0933336,40.426667 90.04,40.36 C89.973333,40.2666662 89.9366667,40.2066668 89.93,40.18 L89.92,40.14 L89.9,40.12 C89.8866666,40.1066666 89.8533336,40.0533338 89.8,39.96 C89.7866666,40.026667 89.78,40.0966663 89.78,40.17 L89.78,40.38 C89.7666666,40.446667 89.76,40.5333328 89.76,40.64 C89.76,40.6933336 89.7533334,40.7399998 89.74,40.78 C89.7800002,40.8600004 89.8366663,40.9566661 89.91,41.07 C89.9833337,41.1833339 90.0733328,41.3133326 90.18,41.46 C90.4733348,41.8466686 90.8599976,42.239998 91.34,42.64 L91.26,42.48 C91.2333332,42.4399998 91.2066668,42.386667 91.18,42.32 C91.1533332,42.253333 91.1266668,42.2000002 91.1,42.16 L91.1,42.14 Z M159.46,26.4 C159.233332,27.1200036 159.013334,27.8199966 158.8,28.5 C158.586666,29.1800034 158.380001,29.8466634 158.18,30.5 C158.953337,29.1266598 159.749996,27.673341 160.57,26.14 C161.390004,24.606659 162.259995,22.9600088 163.18,21.2 C164.260005,19.133323 165.399994,16.9400116 166.6,14.62 C167.800006,12.2999884 169.033327,9.80668 170.3,7.14 L170.3,7.16 C170.633335,6.4399964 170.946665,5.7533366 171.24,5.1 C171.533335,4.4466634 171.793332,3.8066698 172.02,3.18 C171.673332,3.3666676 171.333335,3.5899987 171,3.85 C170.666665,4.1100013 170.346668,4.373332 170.04,4.64 C169.41333,5.2666698 168.813336,5.9666628 168.24,6.74 C167.666664,7.540004 167.063337,8.4866612 166.43,9.58 C165.796664,10.6733388 165.12667,11.9466594 164.42,13.4 C163.699996,14.933341 162.923338,16.766656 162.09,18.9 C161.256662,21.033344 160.380005,23.533319 159.46,26.4 Z M388.98,39.42 C388.833333,39.42 388.74,39.4000002 388.7,39.36 C388.606666,39.2799996 388.583333,39.1466676 388.63,38.96 C388.676667,38.7733324 388.746666,38.580001 388.84,38.38 C388.933334,38.179999 389.036666,37.9966675 389.15,37.83 C389.263334,37.6633325 389.34,37.5533336 389.38,37.5 C389.38,37.5133334 389.443333,37.5133334 389.57,37.5 C389.696667,37.4866666 389.839999,37.48 390,37.48 C390.160001,37.48 390.323332,37.4966665 390.49,37.53 C390.656668,37.5633335 390.786666,37.6266662 390.88,37.72 C390.96,37.8000004 390.99,37.906666 390.97,38.04 C390.95,38.173334 390.916667,38.3033327 390.87,38.43 C390.823333,38.5566673 390.776667,38.6699995 390.73,38.77 C390.683333,38.8700005 390.673333,38.9333332 390.7,38.96 C390.62,39.0000002 390.513334,39.0433331 390.38,39.09 C390.246666,39.1366669 390.100001,39.1866664 389.94,39.24 C389.779999,39.2933336 389.616668,39.3366665 389.45,39.37 C389.283333,39.4033335 389.126667,39.42 388.98,39.42 Z M397.8,39.16 C397.679999,39.16 397.573334,39.1533334 397.48,39.14 C397.386666,39.1266666 397.326667,39.1000002 397.3,39.06 C397.246666,39.0066664 397.22,38.913334 397.22,38.78 C397.22,38.513332 397.283333,38.2500013 397.41,37.99 C397.536667,37.7299987 397.626666,37.566667 397.68,37.5 C397.68,37.5133334 397.733333,37.5066668 397.84,37.48 C397.946667,37.4533332 398.073333,37.4300001 398.22,37.41 C398.366667,37.3899999 398.513333,37.3899999 398.66,37.41 C398.806667,37.4300001 398.926666,37.4866662 399.02,37.58 C399.1,37.6600004 399.14,37.7699993 399.14,37.91 C399.14,38.0500007 399.126667,38.1933326 399.1,38.34 C399.073333,38.4866674 399.043333,38.6199994 399.01,38.74 C398.976666,38.8600006 398.973333,38.9333332 399,38.96 C398.893333,38.9866668 398.723334,39.0266664 398.49,39.08 C398.256666,39.1333336 398.026668,39.16 397.8,39.16 Z M381.64,39.06 C381.373332,39.06 381.186667,39.0066672 381.08,38.9 C381.026666,38.8466664 380.99,38.7700005 380.97,38.67 C380.95,38.5699995 380.94,38.4600006 380.94,38.34 C380.94,38.1533324 380.956667,37.9800008 380.99,37.82 C381.023334,37.6599992 381.053333,37.5533336 381.08,37.5 C381.08,37.5133334 381.133333,37.4900003 381.24,37.43 C381.346667,37.3699997 381.473333,37.3133336 381.62,37.26 C381.766667,37.2066664 381.913333,37.1733334 382.06,37.16 C382.206667,37.1466666 382.326666,37.1866662 382.42,37.28 C382.486667,37.3600004 382.516667,37.4833325 382.51,37.65 C382.503333,37.8166675 382.486667,37.9866658 382.46,38.16 C382.433333,38.3333342 382.403334,38.4933326 382.37,38.64 C382.336666,38.7866674 382.333333,38.8799998 382.36,38.92 C382.253333,38.9600002 382.140001,38.9933332 382.02,39.02 C381.899999,39.0466668 381.773334,39.06 381.64,39.06 Z M382.42,39.02 C382.42,38.9933332 382.4,38.9600002 382.36,38.92 C382.426667,38.8933332 382.48,38.8700001 382.52,38.85 C382.56,38.8299999 382.593333,38.8066668 382.62,38.78 L382.78,38.78 L382.42,39.02 Z M399.02,39.02 C399.02,38.9933332 399.013333,38.9733334 399,38.96 C399.053334,38.9333332 399.086667,38.9133334 399.1,38.9 L399.02,39.02 Z M390.72,39.02 C390.72,39.0066666 390.713333,38.9866668 390.7,38.96 C390.753334,38.9333332 390.786667,38.9133334 390.8,38.9 L390.72,39.02 Z" id="Just-for-you…" fill="#191e22"></path>
    </g>
</svg>